<svg xmlns="http://www.w3.org/2000/svg" xmlns:xlink="http://www.w3.org/1999/xlink" width="270.92" height="60.356" viewBox="0 0 270.92 60.356">
  <defs>
    <linearGradient id="linear-gradient" x1="0.476" y1="1.344" x2="0.548" y2="-0.198" gradientUnits="objectBoundingBox">
      <stop offset="0.024" stop-color="#ff0053"/>
      <stop offset="0.459" stop-color="#fd4e3e"/>
      <stop offset="0.826" stop-color="#fb8a2e"/>
      <stop offset="1" stop-color="#fba228"/>
    </linearGradient>
    <linearGradient id="linear-gradient-2" x1="0.394" y1="1.139" x2="0.573" y2="-0.125" xlink:href="#linear-gradient"/>
    <linearGradient id="linear-gradient-3" x1="0.89" y1="-0.412" x2="0.182" y2="1.193" gradientUnits="objectBoundingBox">
      <stop offset="0" stop-color="#623454"/>
      <stop offset="0.452" stop-color="#ad95a6"/>
      <stop offset="0.827" stop-color="#e8e1e6"/>
      <stop offset="1" stop-color="#fff"/>
    </linearGradient>
    <linearGradient id="linear-gradient-4" x1="1.316" y1="-0.876" x2="-0.121" y2="1.2" xlink:href="#linear-gradient-3"/>
  </defs>
  <g id="Group_1317" data-name="Group 1317" transform="translate(-115.489 -336.616)">
    <path id="Path_33" data-name="Path 33" d="M258.427,374.783a12.49,12.49,0,0,0-2.826-2.911,10.883,10.883,0,0,0-6.487-2.08,11.185,11.185,0,0,0-11.268,11.561c0,7.4,5.489,11.725,11.268,11.725a11.554,11.554,0,0,0,7.111-2.286,9.465,9.465,0,0,0,3.617-5.489H246.577v-3.992h18.961a17.413,17.413,0,0,1-1.372,6.9c-2.828,6.113-9.189,9.191-15.011,9.191a15.9,15.9,0,0,1-16.174-16.05c0-9.189,7.276-15.884,16.215-15.884,6.611,0,12.558,3.992,14.761,9.314Z" transform="translate(-61.552 -15.116)" fill="#fff"/>
    <path id="Path_34" data-name="Path 34" d="M308.424,366.69h4.324V378c1.33-2.661,4.408-3.867,7.36-3.827,3.534,0,5.781,1.165,7.234,3.16,1.414,1.955,1.955,4.658,1.955,7.775v12.35h-4.366V385.318a8.6,8.6,0,0,0-1.289-5.073,5.658,5.658,0,0,0-4.74-2,5.734,5.734,0,0,0-4.783,2.08,7.09,7.09,0,0,0-1.372,4.366V397.46h-4.324Z" transform="translate(-101.076 -15.755)" fill="#fff"/>
    <path id="Path_35" data-name="Path 35" d="M359.5,394.344a11.955,11.955,0,1,1,0,.042Zm4.325.082a7.924,7.924,0,1,0,0-.04Z" transform="translate(-127.835 -23.99)" fill="#fff"/>
    <path id="Path_36" data-name="Path 36" d="M426.126,388.98a2.9,2.9,0,0,0-3.286-3.036,2.936,2.936,0,0,0-3.242,2.911c.082,1.787,1.7,2.62,4.115,3.284,3.452.956,7.236,1.955,7.361,6.819.083,4.408-3.576,7.4-8.067,7.4-3.576,0-8.025-2.036-8.233-7.192h4.283a3.788,3.788,0,0,0,3.992,3.658,3.491,3.491,0,0,0,3.7-3.367c-.041-2.246-1.747-2.994-5.779-4.325-3.16-.956-5.655-2.453-5.7-5.863,0-4.282,3.492-6.861,7.609-6.861,3.119,0,7.194,1.538,7.525,6.571Z" transform="translate(-156.791 -23.99)" fill="#fff"/>
    <path id="Path_37" data-name="Path 37" d="M455.52,378.207h-4.075V374.84h4.075v-8.15h4.325v8.15h4.366v3.367h-4.366V397.46H455.52Z" transform="translate(-176.003 -15.755)" fill="#fff"/>
    <path id="Path_38" data-name="Path 38" d="M492.006,366.69c4.781,0,6.819.624,8.65,2.08a9.645,9.645,0,0,1,3.409,7.567,10.142,10.142,0,0,1-3.2,7.567c-2.079,1.622-4.157,2.286-8.4,2.286h-4.325V397.46h-4.906V366.69Zm-3.867,15.178h4.242a8.59,8.59,0,0,0,4.781-1.039,5.479,5.479,0,0,0-.042-8.816,8.958,8.958,0,0,0-4.906-1h-4.075Z" transform="translate(-192.656 -15.755)" fill="#fff"/>
    <path id="Path_39" data-name="Path 39" d="M552.263,405.695h-4.325v-3.95c-1.58,3.036-4.823,4.615-8.4,4.615-7.276,0-11.6-5.653-11.6-11.973,0-6.9,5.031-11.977,11.6-11.977,4.491,0,7.36,2.5,8.4,4.657v-3.991h4.325Zm-20-11.228a7.767,7.767,0,0,0,7.9,7.86,7.4,7.4,0,0,0,7.028-4.491,8.529,8.529,0,0,0,.789-3.369,7.2,7.2,0,0,0-.665-3.367,7.553,7.553,0,0,0-7.236-4.658,7.74,7.74,0,0,0-7.817,7.983Z" transform="translate(-216.076 -23.99)" fill="#fff"/>
    <path id="Path_40" data-name="Path 40" d="M591.424,405.763l-8.648-21.955h4.656l6.237,16.549,6.321-16.549h4.656L592.3,414.661h-4.615Z" transform="translate(-244.805 -24.723)" fill="#fff"/>
    <path id="Path_41" data-name="Path 41" d="M638.563,381.41l-9.814-14.72h5.572l7.069,11.1,7.027-11.1h5.529l-9.687,14.8,10.6,15.967H649.29l-8.066-12.517-7.859,12.517h-5.447Z" transform="translate(-268.454 -15.755)" fill="url(#linear-gradient)"/>
    <g id="Group_10" data-name="Group 10" transform="translate(115.489 336.616)">
      <g id="Logo">
        <path id="Path_42" data-name="Path 42" d="M162.708,360.226h0a15.727,15.727,0,0,1-15.727,15.727H139.1a21.019,21.019,0,0,1-21.019,21.019h-2.591V360.226a23.61,23.61,0,0,1,23.61-23.61h0A23.61,23.61,0,0,1,162.708,360.226Z" transform="translate(-115.489 -336.616)" fill="url(#linear-gradient-2)"/>
        <path id="Path_43" data-name="Path 43" d="M139.1,419.168h0s-23.61-2.3-23.61,21.019h2.591A21.019,21.019,0,0,0,139.1,419.168Z" transform="translate(-115.489 -379.831)" fill="url(#linear-gradient-3)" style="mix-blend-mode: multiply;isolation: isolate"/>
        <path id="Path_44" data-name="Path 44" d="M115.489,440.187h2.591c.5,0,1-.024,1.49-.059,1.075-19.12,19.529-20.96,19.529-20.96h0S115.489,416.866,115.489,440.187Z" transform="translate(-115.489 -379.831)" fill="url(#linear-gradient-4)" style="mix-blend-mode: multiply;isolation: isolate"/>
        <path id="Path_45" data-name="Path 45" d="M115.489,440.187h1.363c.633-21.693,22.247-21.019,22.247-21.019h0S115.489,416.866,115.489,440.187Z" transform="translate(-115.489 -379.831)" fill="url(#linear-gradient-4)" style="mix-blend-mode: multiply;isolation: isolate"/>
      </g>
      <g id="Group_9" data-name="Group 9" transform="translate(13.29 4.031)">
        <path id="Path_46" data-name="Path 46" d="M152.9,345.667c-6.923,2.639-5.662,9.023-5.609,14.892.046,5.045-2.211,8.133-3.243,10.826a.745.745,0,0,0,.882.956c4.529-.862,4.839,3.193,7.407,3.637,2.791.483,2.582-3.616,6.1-2.524,8.1,2.444,12.749-2.145,10.238-13.738S157.384,343.958,152.9,345.667Zm2.667,10.255a1.763,1.763,0,0,1-2.336-.582,1.57,1.57,0,0,1,.616-2.211,1.763,1.763,0,0,1,2.336.583A1.57,1.57,0,0,1,155.569,355.921Zm4.881-2.692a1.762,1.762,0,0,1-2.336-.582,1.57,1.57,0,0,1,.616-2.211,1.762,1.762,0,0,1,2.336.582A1.569,1.569,0,0,1,160.45,353.229Z" transform="translate(-143.717 -345.196)" fill="#fff"/>
        <path id="Path_47" data-name="Path 47" d="M152.571,345.462c-7.169,2.733-5.849,9.377-5.781,15.484.058,5.248-2.274,8.457-3.339,11.257a.777.777,0,0,0,.917,1c4.692-.888,5.021,3.331,7.684,3.8,2.893.508,2.668-3.757,6.32-2.615,8.394,2.558,13.207-2.208,10.581-14.274S157.212,343.693,152.571,345.462Zm2.785,10.674a1.826,1.826,0,0,1-2.422-.61,1.632,1.632,0,0,1,.633-2.3,1.826,1.826,0,0,1,2.422.61A1.632,1.632,0,0,1,155.356,356.136Zm5.052-2.792a1.827,1.827,0,0,1-2.422-.61,1.632,1.632,0,0,1,.633-2.3,1.826,1.826,0,0,1,2.422.61A1.632,1.632,0,0,1,160.408,353.344Z" transform="translate(-143.403 -345.083)" opacity="0.19"/>
        <path id="Path_48" data-name="Path 48" d="M152.9,345.667c-6.923,2.639-5.662,9.023-5.609,14.892.046,5.045-2.211,8.133-3.243,10.826a.745.745,0,0,0,.882.956c4.529-.862,4.839,3.193,7.407,3.637,2.791.483,2.582-3.616,6.1-2.524,8.1,2.444,12.749-2.145,10.238-13.738S157.384,343.958,152.9,345.667Zm2.667,10.255a1.763,1.763,0,0,1-2.336-.582,1.57,1.57,0,0,1,.616-2.211,1.763,1.763,0,0,1,2.336.583A1.57,1.57,0,0,1,155.569,355.921Zm4.881-2.692a1.762,1.762,0,0,1-2.336-.582,1.57,1.57,0,0,1,.616-2.211,1.762,1.762,0,0,1,2.336.582A1.569,1.569,0,0,1,160.45,353.229Z" transform="translate(-143.717 -345.196)" fill="#fff"/>
      </g>
    </g>
  </g>
</svg>
