<svg id="Group_501" data-name="Group 501" xmlns="http://www.w3.org/2000/svg" width="34.623" height="28.536" viewBox="0 0 34.623 28.536">
  <g id="Group_402" data-name="Group 402">
    <path id="Path_1352" data-name="Path 1352" d="M209.661,826.48a14.239,14.239,0,0,1-3.5,1c.564-.095,1.4-1.116,1.728-1.528a5.91,5.91,0,0,0,.746-1.173c.231-.522.431-.98.446-1.018s-.09-.121-.159-.129l-.061.031a17.86,17.86,0,0,1-4.156,1.59l-.121.031a2.555,2.555,0,0,1-.4-.372l-.128-.106a7.355,7.355,0,0,0-2.014-1.234,7,7,0,0,0-3.089-.5,7.389,7.389,0,0,0-2.93.827,7.573,7.573,0,0,0-2.364,1.931,7.262,7.262,0,0,0-1.411,2.827,7.638,7.638,0,0,0-.075,2.986c.022.166.008.189-.143.166-5.71-.849-10.443-2.893-14.285-7.271-.167-.19-.257-.19-.394.015-1.681,2.52-.865,6.569,1.235,8.558l.28.266c.329.279.258.478-.158.443s-2.113-.729-2.251-.754l-.015.19a4.429,4.429,0,0,0,.045.818A7.327,7.327,0,0,0,181,839.916l.288.121c.345.087.376.206.067.263s-2.265.007-2.415.04l.075.19a8.2,8.2,0,0,0,4.7,4.425,9.818,9.818,0,0,0,1.241.354,2.229,2.229,0,0,1,.485.106l-.015.022c-.638.973-2.85,1.7-3.879,2.056a19.868,19.868,0,0,1-4.855.728c-.57.015-1.123.016-1.228.005s-.28.05-.283.086a5.634,5.634,0,0,0,.906.647l.417.227a19.442,19.442,0,0,0,3.938,1.576c7.077,1.954,15.05.518,20.364-4.762,4.173-4.146,5.635-9.864,5.635-15.589,0-.224.265-.348.423-.466a13.738,13.738,0,0,0,2.758-2.882.84.84,0,0,0,.171-.553v-.015c0-.008.005-.044.011-.079Z" transform="translate(-175.179 -823.06)" fill="#fff"/>
  </g>
  <g id="Group_403" data-name="Group 403" transform="translate(10.256 28.413)">
    <path id="Path_1353" data-name="Path 1353" d="M185.435,851.473Z" transform="translate(-185.435 -851.473)" fill="#fff" fill-rule="evenodd"/>
  </g>
  <g id="Group_404" data-name="Group 404" transform="translate(9.991 28.413)">
    <path id="Path_1354" data-name="Path 1354" d="M185.435,851.473c-.046,0-.572,0,0,0Z" transform="translate(-185.17 -851.473)" fill="#fff" fill-rule="evenodd"/>
  </g>
  <g id="Group_405" data-name="Group 405" transform="translate(11.422 28.418)">
    <path id="Path_1355" data-name="Path 1355" d="M186.6,851.5c0-.059.614,0,0,0C186.6,851.473,186.677,851.5,186.6,851.5Z" transform="translate(-186.601 -851.478)" fill="#fff" fill-rule="evenodd"/>
  </g>
  <g id="Group_406" data-name="Group 406" transform="translate(23.533 0.042)">
    <path id="Path_1356" data-name="Path 1356" d="M198.855,823.1a.124.124,0,0,1-.143,0Z" transform="translate(-198.712 -823.102)" fill="#fff" fill-rule="evenodd"/>
  </g>
</svg>
