<svg id="Group_502" data-name="Group 502" xmlns="http://www.w3.org/2000/svg" width="37.169" height="37.168" viewBox="0 0 37.169 37.168">
  <path id="Path_1358" data-name="Path 1358" d="M271.692,825.587a2.185,2.185,0,1,0,2.185,2.185A2.185,2.185,0,0,0,271.692,825.587Zm-9.714,2.8a9.179,9.179,0,1,0,9.178,9.179A9.189,9.189,0,0,0,261.978,828.389Zm0,15.059a5.88,5.88,0,1,1,5.879-5.88A5.886,5.886,0,0,1,261.978,843.448ZM280.5,829.939a11.2,11.2,0,0,0-11.2-11.2H254.526a11.2,11.2,0,0,0-11.2,11.2v14.778a11.2,11.2,0,0,0,11.2,11.2H269.3a11.2,11.2,0,0,0,11.2-11.2Zm-3.507,14.778a7.689,7.689,0,0,1-7.689,7.689H254.526a7.689,7.689,0,0,1-7.689-7.689V829.939a7.688,7.688,0,0,1,7.689-7.689H269.3a7.688,7.688,0,0,1,7.689,7.689Z" transform="translate(-243.33 -818.744)" fill="#fff"/>
</svg>
