<svg id="Group_503" data-name="Group 503" xmlns="http://www.w3.org/2000/svg" width="16.554" height="35.632" viewBox="0 0 16.554 35.632">
  <g id="Group_408" data-name="Group 408">
    <path id="Path_1357" data-name="Path 1357" d="M317.674,837.468V854.7a.449.449,0,0,0,.449.449h6.4a.449.449,0,0,0,.449-.449V837.188h4.638a.449.449,0,0,0,.447-.411l.446-5.275a.449.449,0,0,0-.447-.487h-5.084v-3.743a1.588,1.588,0,0,1,1.588-1.588h3.575a.449.449,0,0,0,.449-.449V819.96a.448.448,0,0,0-.449-.448h-6.04a6.418,6.418,0,0,0-6.418,6.417v5.086h-3.2a.449.449,0,0,0-.448.449v5.275a.449.449,0,0,0,.448.449h3.2Z" transform="translate(-314.027 -819.512)" fill="#fff" fill-rule="evenodd"/>
  </g>
</svg>
