<svg id="Group_95" data-name="Group 95" xmlns="http://www.w3.org/2000/svg" xmlns:xlink="http://www.w3.org/1999/xlink" width="50.405" height="50.403" viewBox="0 0 50.405 50.403">
  <defs>
    <radialGradient id="radial-gradient" cx="0.508" cy="1.225" r="1.347" gradientTransform="translate(0)" gradientUnits="objectBoundingBox">
      <stop offset="0" stop-color="#3b5998"/>
      <stop offset="0.301" stop-color="#3b5998"/>
      <stop offset="1" stop-color="#5f83cf"/>
    </radialGradient>
  </defs>
  <g id="Group_51" data-name="Group 51">
    <path id="Path_904" data-name="Path 904" d="M216,1097.545a10.352,10.352,0,0,1-10.353,10.353h-29.7a10.353,10.353,0,0,1-10.354-10.353v-29.7a10.353,10.353,0,0,1,10.354-10.353h29.7A10.352,10.352,0,0,1,216,1067.848Z" transform="translate(-165.592 -1057.495)" fill="url(#radial-gradient)"/>
    <path id="Path_905" data-name="Path 905" d="M255.252,1087.653h4.65v-7.308h-6.968a9.446,9.446,0,0,0-7.174,3.521s-1.9,1.794-1.931,7.045h0v5.481h-6.887v7.76h6.887V1124.2h7.944v-20.048H258.6l.952-7.76H251.77v-5.481h0A3.187,3.187,0,0,1,255.252,1087.653Z" transform="translate(-216.497 -1073.797)" fill="#fff"/>
  </g>
</svg>
