<svg id="Group_96" data-name="Group 96" xmlns="http://www.w3.org/2000/svg" width="50.404" height="50.404" viewBox="0 0 50.404 50.404">
  <g id="Group_54" data-name="Group 54">
    <path id="Path_906" data-name="Path 906" d="M610.456,1097.545A10.351,10.351,0,0,1,600.1,1107.9h-29.7a10.353,10.353,0,0,1-10.354-10.353v-29.7a10.355,10.355,0,0,1,10.354-10.354h29.7a10.353,10.353,0,0,1,10.353,10.354Z" transform="translate(-560.052 -1057.493)" fill="#007bb5"/>
    <g id="Group_53" data-name="Group 53" transform="translate(6.953 6.984)">
      <path id="Path_907" data-name="Path 907" d="M584.918,1093.968h7.565v24.338h-7.565Zm3.784-12.1a4.386,4.386,0,1,1-4.384,4.389,4.389,4.389,0,0,1,4.384-4.389" transform="translate(-584.318 -1081.87)" fill="#fff"/>
      <path id="Path_908" data-name="Path 908" d="M629.374,1122.6h7.257v3.329h.1a7.943,7.943,0,0,1,7.156-3.93c7.66,0,9.075,5.039,9.075,11.59v13.348H645.4V1135.1c0-2.822-.049-6.454-3.932-6.454-3.935,0-4.536,3.078-4.536,6.252v12.037h-7.561Z" transform="translate(-616.465 -1110.499)" fill="#fff"/>
    </g>
  </g>
</svg>
