<svg xmlns="http://www.w3.org/2000/svg" width="40.234" height="24.866" viewBox="0 0 40.234 24.866">
  <g id="Group_1235" data-name="Group 1235" transform="translate(-463.259 -509.014)">
    <g id="layer1" transform="translate(463.259 509.014)">
      <g id="g13" transform="translate(0 0)">
        <g id="Group_1234" data-name="Group 1234" transform="translate(0 0)">
          <rect id="rect19" width="10.879" height="19.547" transform="translate(14.678 2.659)" fill="#ff5f00"/>
          <path id="Path_1094" data-name="Path 1094" d="M15.368,12.433A12.466,12.466,0,0,1,20.1,2.659a12.428,12.428,0,1,0-7.667,22.206A12.357,12.357,0,0,0,20.1,22.206,12.414,12.414,0,0,1,15.368,12.433Z" transform="translate(0 0)" fill="#eb001b"/>
          <path id="path22" d="M520.533,12.433a12.42,12.42,0,0,1-20.1,9.774,12.46,12.46,0,0,0,0-19.547,12.42,12.42,0,0,1,20.1,9.774Z" transform="translate(-480.299 0)" fill="#f79e1b"/>
        </g>
      </g>
    </g>
  </g>
</svg>
