<svg xmlns="http://www.w3.org/2000/svg" width="22.468" height="26.661" viewBox="0 0 22.468 26.661">
  <g id="Group_1226" data-name="Group 1226" transform="translate(-143.479 -354.543)">
    <path id="Path_1072" data-name="Path 1072" d="M175.4,386.87h7.52c4.037,0,5.557,2.044,5.323,5.051-.387,4.958-3.385,7.7-7.361,7.7h-2.007c-.545,0-.911.36-1.06,1.339l-.861,5.684c-.056.369-.25.586-.542.612H171.7c-.444,0-.6-.339-.485-1.075l2.88-18.233A1.15,1.15,0,0,1,175.4,386.87Z" transform="translate(-22.32 -26.052)" fill="#0094cb" fill-rule="evenodd"/>
    <path id="Path_1073" data-name="Path 1073" d="M148.379,354.543h7.528c2.12,0,4.635.069,6.317,1.552a5.1,5.1,0,0,1,1.577,4.265c-.462,5.748-3.9,8.968-8.511,8.968h-3.713c-.632,0-1.051.419-1.229,1.553l-1.036,6.591c-.067.428-.253.68-.591.71h-4.637c-.515,0-.7-.393-.563-1.246l3.339-21.142A1.333,1.333,0,0,1,148.379,354.543Z" transform="translate(0 0)" fill="#003082" fill-rule="evenodd"/>
    <path id="Path_1074" data-name="Path 1074" d="M179.427,396.269l1.315-8.321a1.15,1.15,0,0,1,1.309-1.078h7.52a7.347,7.347,0,0,1,3.039.552c-.756,5.116-4.064,7.958-8.4,7.958H180.5C180.011,395.381,179.646,395.63,179.427,396.269Z" transform="translate(-28.97 -26.052)" fill="#00236d" fill-rule="evenodd"/>
  </g>
</svg>
