<svg xmlns="http://www.w3.org/2000/svg" xmlns:xlink="http://www.w3.org/1999/xlink" width="38.602" height="22.94" viewBox="0 0 38.602 22.94">
  <defs>
    <clipPath id="clip-path">
      <rect id="Rectangle_1172" data-name="Rectangle 1172" width="37.602" height="21.94" fill="none"/>
    </clipPath>
  </defs>
  <g id="Group_1109" data-name="Group 1109" transform="translate(-1515.459 -41.384)">
    <g id="PAKISTAN" transform="translate(1515.959 41.884)">
      <g id="Group_1108" data-name="Group 1108" transform="translate(0)">
        <g id="Group_1107" data-name="Group 1107">
          <g id="Group_1106" data-name="Group 1106" clip-path="url(#clip-path)">
            <rect id="Rectangle_1169" data-name="Rectangle 1169" width="37.602" height="21.94" fill="#fff"/>
            <rect id="Rectangle_1170" data-name="Rectangle 1170" width="28.205" height="21.94" transform="translate(9.397)" fill="#2a680b"/>
            <g id="Group_1105" data-name="Group 1105">
              <g id="Group_1104" data-name="Group 1104" clip-path="url(#clip-path)">
                <path id="Path_49" data-name="Path 49" d="M585.9,412.582a6.58,6.58,0,1,1-6.569,6.578,6.571,6.571,0,0,1,6.569-6.578" transform="translate(-562.998 -408.192)" fill="#fff"/>
                <path id="Path_50" data-name="Path 50" d="M583.346,413.258a6.028,6.028,0,1,1-.5,8.516,6.008,6.008,0,0,1,.5-8.516" transform="translate(-562.759 -408.294)" fill="#2a680b"/>
                <path id="Path_51" data-name="Path 51" d="M589.793,414.555l-2,.875.44,1.007Z" transform="translate(-561.98 -407.955)" fill="#fff"/>
                <path id="Path_52" data-name="Path 52" d="M589.8,414.555l-1.105,1.891-.945-.556Z" transform="translate(-561.985 -407.955)" fill="#fff"/>
                <path id="Path_53" data-name="Path 53" d="M590.05,417.02l-1.457-1.641-.812.731Z" transform="translate(-561.981 -407.856)" fill="#fff"/>
                <path id="Path_54" data-name="Path 54" d="M590.037,417.009l-2.14-.473.234-1.068Z" transform="translate(-561.967 -407.845)" fill="#fff"/>
                <path id="Path_55" data-name="Path 55" d="M587.338,414.059l.217,2.184,1.088-.105Z" transform="translate(-562.035 -408.015)" fill="#fff"/>
                <path id="Path_56" data-name="Path 56" d="M587.338,414.059l1.455,1.641-.823.727Z" transform="translate(-562.035 -408.015)" fill="#fff"/>
                <path id="Path_57" data-name="Path 57" d="M587.7,418.029l1.105-1.9-.945-.551Z" transform="translate(-561.991 -407.831)" fill="#fff"/>
                <path id="Path_58" data-name="Path 58" d="M587.727,418.012l-.219-2.184,1.09-.109Z" transform="translate(-562.014 -407.815)" fill="#fff"/>
                <path id="Path_59" data-name="Path 59" d="M586.178,416.111l2.138.468.23-1.068Z" transform="translate(-562.174 -407.84)" fill="#fff"/>
                <path id="Path_60" data-name="Path 60" d="M586.178,416.141l2-.88.438,1.007Z" transform="translate(-562.174 -407.87)" fill="#fff"/>
              </g>
            </g>
          </g>
        </g>
      </g>
    </g>
    <rect id="Rectangle_1173" data-name="Rectangle 1173" width="37.602" height="21.94" transform="translate(1515.959 41.884)" fill="none" stroke="#eaeaea" stroke-width="1"/>
  </g>
</svg>
