<svg xmlns="http://www.w3.org/2000/svg" width="21.981" height="40.517" viewBox="0 0 21.981 40.517">
  <g id="Group_1276" data-name="Group 1276" transform="translate(-226.324 -103.119)">
    <path id="Path_1137" data-name="Path 1137" d="M250.184,144.673s.486-13.02,0-14.856c-.429-1.619-3.966-6.051-3.966-6.051l-9.54,8.1s2.431,6.7,2.917,7.779a14.611,14.611,0,0,0,1.945,2.7v2.323Z" transform="translate(-3.04 -6.061)" fill="#ffbe69"/>
    <path id="Path_1138" data-name="Path 1138" d="M243.443,143.4l-4.2-1.188c.485,1.3.925,2.452,1.1,2.848a14.611,14.611,0,0,0,1.945,2.7v2.323h3.728v-2.432Z" transform="translate(-3.793 -11.478)" fill="#f29040"/>
    <g id="Group_1271" data-name="Group 1271" transform="translate(226.324 105.064)">
      <rect id="Rectangle_1238" data-name="Rectangle 1238" width="14.586" height="27.551" transform="translate(0.508)" fill="#3a7c00"/>
      <rect id="Rectangle_1239" data-name="Rectangle 1239" width="14.586" height="27.551" transform="translate(0)" fill="#56b512"/>
      <path id="Path_1139" data-name="Path 1139" d="M239.015,123.688a4.052,4.052,0,1,1-4.051-4.051A4.051,4.051,0,0,1,239.015,123.688Z" transform="translate(-227.671 -109.913)" fill="#4a9b05"/>
      <g id="Group_1268" data-name="Group 1268" transform="translate(5.348 3.646)">
        <circle id="Ellipse_368" data-name="Ellipse 368" cx="1.945" cy="1.945" r="1.945" fill="#80d52f"/>
        <circle id="Ellipse_369" data-name="Ellipse 369" cx="1.945" cy="1.945" r="1.945" transform="translate(0 16.369)" fill="#80d52f"/>
      </g>
      <path id="Path_1140" data-name="Path 1140" d="M226.324,105.872v27.551H240.91V105.872Zm13.807,26.741H227.1v-25.93h13.029Z" transform="translate(-226.324 -105.872)" fill="#4a9b05"/>
      <g id="Group_1269" data-name="Group 1269" transform="translate(0 0)">
        <path id="Path_1141" data-name="Path 1141" d="M230.011,106.075c0-.07-.016-.134-.02-.2h-3.666v4A3.8,3.8,0,0,0,230.011,106.075Z" transform="translate(-226.324 -105.872)" fill="#4a9b05"/>
        <path id="Path_1142" data-name="Path 1142" d="M245.439,109.871v-4h-3.666c0,.069-.02.133-.02.2A3.8,3.8,0,0,0,245.439,109.871Z" transform="translate(-230.853 -105.872)" fill="#4a9b05"/>
        <path id="Path_1143" data-name="Path 1143" d="M230.011,143.008a3.8,3.8,0,0,0-3.687-3.8v4h3.666C229.995,143.142,230.011,143.078,230.011,143.008Z" transform="translate(-226.324 -115.66)" fill="#4a9b05"/>
        <path id="Path_1144" data-name="Path 1144" d="M241.752,143.008c0,.069.017.134.02.2h3.666v-4A3.8,3.8,0,0,0,241.752,143.008Z" transform="translate(-230.853 -115.66)" fill="#4a9b05"/>
      </g>
      <g id="Group_1270" data-name="Group 1270" transform="translate(4.041 12.068)">
        <path id="Path_1145" data-name="Path 1145" d="M236.507,123.95a.635.635,0,0,0-.451.159,1.593,1.593,0,0,0-.325.572,3.22,3.22,0,0,1-.605,1.146,1.261,1.261,0,0,1-.971.372,1.275,1.275,0,0,1-.946-.372,1.627,1.627,0,0,1-.432-1.012h-.732v-.545h.742a1.508,1.508,0,0,1,.48-.964,1.448,1.448,0,0,1,1.026-.338l.018.006v.976a.861.861,0,0,0-.572.168.692.692,0,0,0-.033.938.667.667,0,0,0,.451.144.581.581,0,0,0,.422-.152,1.885,1.885,0,0,0,.338-.584,2.985,2.985,0,0,1,.6-1.135,1.291,1.291,0,0,1,.981-.376,1.257,1.257,0,0,1,.952.371,1.657,1.657,0,0,1,.423,1.013h.673v.544h-.673a1.821,1.821,0,0,1-.437,1.079,1.375,1.375,0,0,1-1.109.408l-.02-.011v-.971a.8.8,0,0,0,.624-.213.821.821,0,0,0,.186-.556.687.687,0,0,0-.165-.5A.6.6,0,0,0,236.507,123.95Z" transform="translate(-232.045 -122.955)" fill="#80d52f"/>
      </g>
    </g>
    <g id="Group_1275" data-name="Group 1275" transform="translate(228.269 103.119)">
      <rect id="Rectangle_1240" data-name="Rectangle 1240" width="14.586" height="27.551" transform="translate(0.508)" fill="#398e01"/>
      <rect id="Rectangle_1241" data-name="Rectangle 1241" width="14.586" height="27.551" transform="translate(0)" fill="#63c21f"/>
      <path id="Path_1146" data-name="Path 1146" d="M241.768,120.935a4.052,4.052,0,1,1-4.051-4.051A4.051,4.051,0,0,1,241.768,120.935Z" transform="translate(-230.424 -107.16)" fill="#57a812"/>
      <g id="Group_1272" data-name="Group 1272" transform="translate(5.348 3.647)">
        <path id="Path_1147" data-name="Path 1147" d="M240.538,110.226a1.945,1.945,0,1,1-1.945-1.945A1.945,1.945,0,0,1,240.538,110.226Z" transform="translate(-236.648 -108.281)" fill="#8de23c"/>
        <path id="Path_1148" data-name="Path 1148" d="M240.538,133.4a1.945,1.945,0,1,1-1.945-1.944A1.945,1.945,0,0,1,240.538,133.4Z" transform="translate(-236.648 -115.083)" fill="#8de23c"/>
      </g>
      <path id="Path_1149" data-name="Path 1149" d="M229.077,103.119V130.67h14.586V103.119Zm13.807,26.741H229.855v-25.93h13.029Z" transform="translate(-229.077 -103.119)" fill="#57a812"/>
      <g id="Group_1273" data-name="Group 1273" transform="translate(0 0)">
        <path id="Path_1150" data-name="Path 1150" d="M232.764,103.322c0-.07-.016-.134-.021-.2h-3.666v4A3.8,3.8,0,0,0,232.764,103.322Z" transform="translate(-229.077 -103.119)" fill="#57a812"/>
        <path id="Path_1151" data-name="Path 1151" d="M248.192,107.118v-4h-3.666c0,.069-.02.133-.02.2A3.8,3.8,0,0,0,248.192,107.118Z" transform="translate(-233.606 -103.119)" fill="#57a812"/>
        <path id="Path_1152" data-name="Path 1152" d="M232.764,140.255a3.8,3.8,0,0,0-3.687-3.8v4h3.666C232.748,140.389,232.764,140.325,232.764,140.255Z" transform="translate(-229.077 -112.907)" fill="#57a812"/>
        <path id="Path_1153" data-name="Path 1153" d="M244.505,140.255c0,.069.017.134.02.2h3.666v-4A3.8,3.8,0,0,0,244.505,140.255Z" transform="translate(-233.606 -112.907)" fill="#57a812"/>
      </g>
      <g id="Group_1274" data-name="Group 1274" transform="translate(4.042 12.068)">
        <path id="Path_1154" data-name="Path 1154" d="M239.26,121.2a.635.635,0,0,0-.451.159,1.594,1.594,0,0,0-.325.572,3.219,3.219,0,0,1-.605,1.146,1.261,1.261,0,0,1-.971.372,1.275,1.275,0,0,1-.946-.372,1.627,1.627,0,0,1-.432-1.012H234.8v-.545h.742a1.512,1.512,0,0,1,.48-.964,1.447,1.447,0,0,1,1.026-.338l.018.006v.975a.86.86,0,0,0-.572.168.692.692,0,0,0-.033.938.666.666,0,0,0,.451.144.581.581,0,0,0,.422-.152,1.886,1.886,0,0,0,.338-.584,2.985,2.985,0,0,1,.6-1.135,1.291,1.291,0,0,1,.98-.376,1.258,1.258,0,0,1,.952.371,1.657,1.657,0,0,1,.423,1.013h.673v.545h-.673a1.821,1.821,0,0,1-.437,1.079,1.375,1.375,0,0,1-1.109.408l-.02-.011v-.971a.8.8,0,0,0,.624-.213.818.818,0,0,0,.186-.556.687.687,0,0,0-.165-.5A.6.6,0,0,0,239.26,121.2Z" transform="translate(-234.798 -120.202)" fill="#8de23c"/>
      </g>
    </g>
    <path id="Path_1155" data-name="Path 1155" d="M247.724,135.559s-6.7-6-7.617-6.32a1.245,1.245,0,0,0-1.61,1.655c.367,1.316,2.907,2.856,3.636,4.179s0,7.131,3.647,8.751l1.459-.108Z" transform="translate(-3.552 -7.644)" fill="#ffbe69"/>
    <rect id="Rectangle_1242" data-name="Rectangle 1242" width="10.21" height="4.052" transform="translate(237.69 137.477)" fill="#efdfeb"/>
    <rect id="Rectangle_1243" data-name="Rectangle 1243" width="11.02" height="4.052" transform="translate(237.285 139.584)" fill="#282e47"/>
    <path id="Path_1156" data-name="Path 1156" d="M246.188,157.313a.7.7,0,1,1-.7-.7A.7.7,0,0,1,246.188,157.313Z" transform="translate(-5.419 -15.704)" fill="#efdfeb"/>
  </g>
</svg>
