<svg xmlns="http://www.w3.org/2000/svg" width="57.668" height="28.138" viewBox="0 0 57.668 28.138">
  <g id="Group_1302" data-name="Group 1302" transform="translate(-25.886 -114.218)">
    <g id="Group_1300" data-name="Group 1300" transform="translate(25.886 114.218)">
      <rect id="Rectangle_1244" data-name="Rectangle 1244" width="53.029" height="24.753" transform="translate(0.814 0.021)" fill="#dbc1d6"/>
      <rect id="Rectangle_1245" data-name="Rectangle 1245" width="53.029" height="24.753" fill="#f9eff7"/>
      <path id="Path_1157" data-name="Path 1157" d="M77.9,138.278H27.522a.081.081,0,0,1-.082-.081V115.523a.081.081,0,0,1,.082-.081H77.9a.081.081,0,0,1,.082.081V138.2A.081.081,0,0,1,77.9,138.278Zm-50.3-.162H77.818V115.6H27.6Z" transform="translate(-26.196 -114.462)" fill="#707c9b"/>
      <g id="Group_1299" data-name="Group 1299" transform="translate(2.718 2.418)">
        <path id="Path_1158" data-name="Path 1158" d="M32.862,124.4a3.581,3.581,0,1,1,3.581-3.581A3.585,3.585,0,0,1,32.862,124.4Zm0-7a3.419,3.419,0,1,0,3.419,3.419A3.423,3.423,0,0,0,32.862,117.4Z" transform="translate(-29.281 -117.239)" fill="#707c9b"/>
        <g id="Group_1278" data-name="Group 1278" transform="translate(1.289 1.129)">
          <rect id="Rectangle_1246" data-name="Rectangle 1246" width="3.793" height="0.219" transform="translate(0.396 3.736)" fill="#707c9b"/>
          <rect id="Rectangle_1247" data-name="Rectangle 1247" width="3.468" height="0.219" transform="translate(0.558 1.354)" fill="#707c9b"/>
          <rect id="Rectangle_1248" data-name="Rectangle 1248" width="4.442" height="0.381" transform="translate(0.071 3.929)" fill="#707c9b"/>
          <g id="Group_1277" data-name="Group 1277" transform="translate(0.558 1.259)">
            <rect id="Rectangle_1249" data-name="Rectangle 1249" width="2.658" height="0.558" transform="translate(0.558 0) rotate(90)" fill="#707c9b"/>
            <rect id="Rectangle_1250" data-name="Rectangle 1250" width="2.658" height="0.558" transform="translate(1.528 0) rotate(90)" fill="#707c9b"/>
            <rect id="Rectangle_1251" data-name="Rectangle 1251" width="2.658" height="0.558" transform="translate(2.498) rotate(90)" fill="#707c9b"/>
            <rect id="Rectangle_1252" data-name="Rectangle 1252" width="2.658" height="0.558" transform="translate(3.468 0) rotate(90)" fill="#707c9b"/>
          </g>
          <path id="Path_1159" data-name="Path 1159" d="M30.891,120.011h4.585l-2.291-1.361Z" transform="translate(-30.891 -118.65)" fill="#707c9b"/>
        </g>
        <g id="Group_1279" data-name="Group 1279" transform="translate(8.545 0.498)">
          <path id="Path_1160" data-name="Path 1160" d="M39.957,117.872h.657a1.272,1.272,0,0,1,.652.127.446.446,0,0,1,.2.407.512.512,0,0,1-.089.311.355.355,0,0,1-.236.146v.015a.458.458,0,0,1,.289.167.608.608,0,0,1-.119.776.9.9,0,0,1-.567.162h-.791Zm.448.836h.26a.482.482,0,0,0,.263-.056.211.211,0,0,0,.082-.186.187.187,0,0,0-.089-.174.581.581,0,0,0-.281-.052h-.235Zm0,.355v.551H40.7a.436.436,0,0,0,.274-.071.262.262,0,0,0,.087-.217c0-.174-.125-.263-.375-.263Z" transform="translate(-39.957 -117.863)" fill="#707c9b"/>
          <path id="Path_1161" data-name="Path 1161" d="M43.667,119.981l-.153-.5h-.77l-.154.5h-.482l.745-2.12H43.4l.748,2.12Zm-.26-.879c-.142-.455-.221-.713-.239-.772s-.03-.107-.038-.142q-.047.185-.273.914Z" transform="translate(-40.387 -117.861)" fill="#707c9b"/>
          <path id="Path_1162" data-name="Path 1162" d="M46.864,119.983h-.57l-.918-1.6h-.014c.019.282.028.483.028.6v.994h-.4v-2.111h.565l.916,1.581h.01q-.022-.412-.022-.582v-1h.4Z" transform="translate(-40.962 -117.863)" fill="#707c9b"/>
          <path id="Path_1163" data-name="Path 1163" d="M49.693,119.983h-.509l-.553-.89-.189.136v.754H48v-2.111h.447v.966l.176-.249.572-.717h.5l-.737.934Z" transform="translate(-41.562 -117.863)" fill="#707c9b"/>
          <path id="Path_1164" data-name="Path 1164" d="M53.282,119.983h-.569l-.919-1.6h-.013c.018.282.028.483.028.6v.994h-.4v-2.111h.565l.916,1.581h.01q-.022-.412-.022-.582v-1h.4Z" transform="translate(-42.243 -117.863)" fill="#707c9b"/>
          <path id="Path_1165" data-name="Path 1165" d="M55.639,119.981l-.153-.5h-.77l-.153.5h-.483l.745-2.12h.547l.748,2.12Zm-.259-.879c-.142-.455-.222-.713-.239-.772s-.03-.107-.038-.142q-.048.185-.273.914Z" transform="translate(-42.776 -117.861)" fill="#707c9b"/>
          <path id="Path_1166" data-name="Path 1166" d="M57.857,119.983l-.508-1.657h-.013q.028.505.027.674v.983h-.4v-2.111h.61l.5,1.614h.009l.53-1.614h.61v2.111H58.8v-1q0-.071,0-.163t.02-.491h-.014l-.544,1.654Z" transform="translate(-43.352 -117.863)" fill="#707c9b"/>
          <path id="Path_1167" data-name="Path 1167" d="M61.664,119.983H60.448v-2.111h1.216v.367H60.9v.463h.715v.367H60.9v.545h.768Z" transform="translate(-44.047 -117.863)" fill="#707c9b"/>
        </g>
        <g id="Group_1280" data-name="Group 1280" transform="translate(34.283 8.118)">
          <path id="Path_1168" data-name="Path 1168" d="M72.874,129.534h-.234v-1.5q0-.187.012-.355l-.068.064c-.025.022-.14.116-.344.281l-.126-.164.559-.432h.2Z" transform="translate(-72.114 -127.39)" fill="#707c9b"/>
          <path id="Path_1169" data-name="Path 1169" d="M75.468,128.468a1.546,1.546,0,0,1-.173.817.584.584,0,0,1-.528.271.577.577,0,0,1-.518-.277,1.509,1.509,0,0,1-.178-.811,1.54,1.54,0,0,1,.172-.819.638.638,0,0,1,1.047.011A1.508,1.508,0,0,1,75.468,128.468Zm-1.154,0a1.548,1.548,0,0,0,.108.671.389.389,0,0,0,.692,0,2.113,2.113,0,0,0,0-1.334.391.391,0,0,0-.692,0A1.542,1.542,0,0,0,74.314,128.468Z" transform="translate(-72.505 -127.382)" fill="#707c9b"/>
          <path id="Path_1170" data-name="Path 1170" d="M77.582,128.468a1.539,1.539,0,0,1-.173.817.637.637,0,0,1-1.046-.006,1.51,1.51,0,0,1-.178-.811,1.541,1.541,0,0,1,.171-.819.638.638,0,0,1,1.047.011A1.5,1.5,0,0,1,77.582,128.468Zm-1.154,0a1.548,1.548,0,0,0,.108.671.39.39,0,0,0,.693,0,2.128,2.128,0,0,0,0-1.334.391.391,0,0,0-.693,0A1.542,1.542,0,0,0,76.428,128.468Z" transform="translate(-72.927 -127.382)" fill="#707c9b"/>
          <path id="Path_1171" data-name="Path 1171" d="M79.225,129.153v-.219h.709v.219Z" transform="translate(-73.533 -127.692)" fill="#707c9b"/>
          <path id="Path_1172" data-name="Path 1172" d="M82.8,128.468a1.539,1.539,0,0,1-.173.817.637.637,0,0,1-1.046-.006,1.51,1.51,0,0,1-.178-.811,1.549,1.549,0,0,1,.171-.819.638.638,0,0,1,1.047.011A1.5,1.5,0,0,1,82.8,128.468Zm-1.154,0a1.534,1.534,0,0,0,.109.671.389.389,0,0,0,.692,0,2.128,2.128,0,0,0,0-1.334.391.391,0,0,0-.692,0A1.528,1.528,0,0,0,81.65,128.468Z" transform="translate(-73.969 -127.382)" fill="#707c9b"/>
          <path id="Path_1173" data-name="Path 1173" d="M84.917,128.468a1.539,1.539,0,0,1-.173.817.637.637,0,0,1-1.046-.006,1.51,1.51,0,0,1-.178-.811,1.54,1.54,0,0,1,.172-.819.638.638,0,0,1,1.046.011A1.5,1.5,0,0,1,84.917,128.468Zm-1.154,0a1.534,1.534,0,0,0,.109.671.389.389,0,0,0,.692,0,2.128,2.128,0,0,0,0-1.334.391.391,0,0,0-.692,0A1.528,1.528,0,0,0,83.763,128.468Z" transform="translate(-74.391 -127.382)" fill="#707c9b"/>
        </g>
        <g id="Group_1282" data-name="Group 1282" transform="translate(8.312 3.286)">
          <g id="Group_1281" data-name="Group 1281">
            <path id="Path_1174" data-name="Path 1174" d="M40.263,121.4l-.033.065a.436.436,0,0,0-.192-.046c-.1,0-.15.036-.15.138v.127h.451v.808h-.089v-.736h-.363v.736H39.8v-.736h-.133v-.073H39.8v-.132c0-.131.082-.208.237-.208A.461.461,0,0,1,40.263,121.4Z" transform="translate(-39.666 -121.344)" fill="#707c9b"/>
            <path id="Path_1175" data-name="Path 1175" d="M41.316,121.757l-.018.085a.275.275,0,0,0-.071-.009c-.113,0-.174.082-.216.249v.491h-.09v-.808H41l.008.181c.043-.134.116-.2.229-.2A.3.3,0,0,1,41.316,121.757Z" transform="translate(-39.917 -121.424)" fill="#707c9b"/>
            <path id="Path_1176" data-name="Path 1176" d="M42.054,121.837l-.042.058a.347.347,0,0,0-.213-.074c-.107,0-.179.052-.179.136s.05.114.2.153c.176.046.259.107.259.245s-.131.235-.292.235a.425.425,0,0,1-.289-.1l.05-.057a.361.361,0,0,0,.238.085c.118,0,.2-.056.2-.155s-.045-.133-.214-.179-.242-.108-.242-.221.116-.212.27-.212A.394.394,0,0,1,42.054,121.837Z" transform="translate(-40.031 -121.424)" fill="#707c9b"/>
            <path id="Path_1177" data-name="Path 1177" d="M42.857,122.492a.3.3,0,0,1-.17.051.187.187,0,0,1-.2-.213v-.539h-.136v-.073h.136v-.194l.09-.011v.2h.209l-.01.073h-.2v.535c0,.094.037.141.119.141a.23.23,0,0,0,.124-.038Z" transform="translate(-40.202 -121.378)" fill="#707c9b"/>
            <path id="Path_1178" data-name="Path 1178" d="M44.352,122.084c0,.26-.113.425-.308.425a.292.292,0,0,1-.234-.119l-.007.1h-.079v-1.138l.09-.01v.453a.292.292,0,0,1,.243-.13C44.243,121.667,44.352,121.815,44.352,122.084Zm-.1,0c0-.239-.08-.343-.219-.343a.272.272,0,0,0-.224.139v.427a.255.255,0,0,0,.214.128C44.171,122.435,44.256,122.32,44.256,122.084Z" transform="translate(-40.476 -121.344)" fill="#707c9b"/>
            <path id="Path_1179" data-name="Path 1179" d="M45.4,122.527l-.02.063a.143.143,0,0,1-.126-.134.284.284,0,0,1-.251.134.229.229,0,0,1-.251-.241c0-.17.128-.262.335-.262h.154v-.078c0-.129-.053-.186-.187-.186a.65.65,0,0,0-.219.046l-.023-.068a.682.682,0,0,1,.255-.054.23.23,0,0,1,.264.257v.39C45.333,122.483,45.358,122.51,45.4,122.527Zm-.158-.154v-.22H45.1c-.162,0-.254.064-.254.192a.156.156,0,0,0,.17.173A.239.239,0,0,0,45.244,122.372Z" transform="translate(-40.682 -121.424)" fill="#707c9b"/>
            <path id="Path_1180" data-name="Path 1180" d="M46.471,121.994v.579h-.09v-.566c0-.134-.054-.187-.154-.187a.3.3,0,0,0-.25.167v.586h-.09v-.808h.078l.008.138a.328.328,0,0,1,.271-.155C46.392,121.747,46.471,121.838,46.471,121.994Z" transform="translate(-40.908 -121.424)" fill="#707c9b"/>
            <path id="Path_1181" data-name="Path 1181" d="M47.11,122.493h-.09v-1.138l.09-.01Zm.113-.447.375.447H47.49l-.371-.442.34-.367h.1Z" transform="translate(-41.134 -121.344)" fill="#707c9b"/>
            <path id="Path_1182" data-name="Path 1182" d="M49.109,122.166c0,.261-.13.423-.343.423s-.342-.16-.342-.42.132-.423.343-.423S49.109,121.9,49.109,122.166Zm-.589,0c0,.227.091.345.246.345s.249-.116.249-.348-.09-.343-.247-.343S48.52,121.937,48.52,122.17Z" transform="translate(-41.414 -121.424)" fill="#707c9b"/>
            <path id="Path_1183" data-name="Path 1183" d="M49.679,121.554v.13h.213l-.012.073h-.2v.736h-.09v-.736h-.14v-.073h.14v-.134a.2.2,0,0,1,.225-.206.427.427,0,0,1,.188.043l-.03.066a.361.361,0,0,0-.153-.036C49.727,121.418,49.679,121.458,49.679,121.554Z" transform="translate(-41.619 -121.344)" fill="#707c9b"/>
            <path id="Path_1184" data-name="Path 1184" d="M51.109,122.492a.3.3,0,0,1-.17.051.187.187,0,0,1-.2-.213v-.539H50.6v-.073h.137v-.194l.09-.011v.2h.208l-.01.073h-.2v.535c0,.094.037.141.118.141a.226.226,0,0,0,.124-.038Z" transform="translate(-41.849 -121.378)" fill="#707c9b"/>
            <path id="Path_1185" data-name="Path 1185" d="M52.019,122.166c0,.261-.13.423-.343.423s-.342-.16-.342-.42.132-.423.343-.423S52.019,121.9,52.019,122.166Zm-.589,0c0,.227.091.345.246.345s.25-.116.25-.348-.091-.343-.248-.343S51.43,121.937,51.43,122.17Z" transform="translate(-41.995 -121.424)" fill="#707c9b"/>
            <path id="Path_1186" data-name="Path 1186" d="M53.151,122.577H53.03l-.179-.725-.182.725h-.119l-.2-.808h.092l.174.739.188-.739h.1l.186.74.171-.74h.089Z" transform="translate(-42.197 -121.429)" fill="#707c9b"/>
            <path id="Path_1187" data-name="Path 1187" d="M54.438,121.994v.579h-.09v-.566c0-.134-.054-.187-.153-.187a.3.3,0,0,0-.251.167v.586h-.09v-.808h.077l.008.138a.329.329,0,0,1,.272-.155C54.359,121.747,54.438,121.838,54.438,121.994Z" transform="translate(-42.498 -121.424)" fill="#707c9b"/>
          </g>
        </g>
        <g id="Group_1284" data-name="Group 1284" transform="translate(0.882 13.823)">
          <g id="Group_1283" data-name="Group 1283">
            <path id="Path_1188" data-name="Path 1188" d="M30.98,134.568l-.032.065a.439.439,0,0,0-.192-.046c-.1,0-.15.035-.15.138v.126h.451v.809h-.09v-.736h-.362v.736h-.09v-.736h-.133v-.073h.133v-.131c0-.131.082-.209.237-.209A.462.462,0,0,1,30.98,134.568Z" transform="translate(-30.383 -134.51)" fill="#707c9b"/>
            <path id="Path_1189" data-name="Path 1189" d="M32.033,134.923l-.017.086a.247.247,0,0,0-.071-.01c-.113,0-.175.082-.217.25v.491h-.09v-.809h.078l.007.181c.043-.133.116-.2.229-.2A.333.333,0,0,1,32.033,134.923Z" transform="translate(-30.634 -134.591)" fill="#707c9b"/>
            <path id="Path_1190" data-name="Path 1190" d="M32.771,135l-.042.059a.346.346,0,0,0-.213-.074c-.107,0-.179.052-.179.136s.051.114.2.153c.176.046.26.107.26.244s-.132.235-.292.235a.426.426,0,0,1-.29-.1l.05-.058a.358.358,0,0,0,.239.086c.117,0,.2-.056.2-.155s-.045-.133-.214-.179-.242-.108-.242-.221.116-.212.27-.212A.4.4,0,0,1,32.771,135Z" transform="translate(-30.748 -134.591)" fill="#707c9b"/>
            <path id="Path_1191" data-name="Path 1191" d="M33.574,135.659a.3.3,0,0,1-.17.051.187.187,0,0,1-.2-.213v-.54H33.07v-.073h.136v-.193l.09-.011v.2H33.5l-.01.073h-.2v.535c0,.094.037.141.118.141a.23.23,0,0,0,.124-.038Z" transform="translate(-30.919 -134.544)" fill="#707c9b"/>
            <path id="Path_1192" data-name="Path 1192" d="M35.069,135.251c0,.259-.113.425-.307.425a.29.29,0,0,1-.234-.119l-.008.1h-.079v-1.138l.09-.011v.453a.291.291,0,0,1,.243-.13C34.96,134.833,35.069,134.982,35.069,135.251Zm-.1,0c0-.239-.08-.343-.218-.343a.27.27,0,0,0-.224.139v.427a.253.253,0,0,0,.213.128C34.888,135.6,34.973,135.486,34.973,135.251Z" transform="translate(-31.193 -134.51)" fill="#707c9b"/>
            <path id="Path_1193" data-name="Path 1193" d="M36.119,135.694l-.02.063a.143.143,0,0,1-.126-.134.284.284,0,0,1-.251.134.229.229,0,0,1-.251-.241c0-.17.128-.262.335-.262h.154v-.079c0-.128-.053-.186-.187-.186a.657.657,0,0,0-.219.047l-.023-.068a.669.669,0,0,1,.255-.054.229.229,0,0,1,.264.257v.39C36.05,135.65,36.075,135.677,36.119,135.694Zm-.158-.154v-.22h-.14c-.163,0-.255.064-.255.192a.157.157,0,0,0,.17.173A.24.24,0,0,0,35.961,135.539Z" transform="translate(-31.399 -134.591)" fill="#707c9b"/>
            <path id="Path_1194" data-name="Path 1194" d="M37.188,135.161v.579H37.1v-.566c0-.134-.054-.187-.154-.187a.3.3,0,0,0-.25.167v.586H36.6v-.809h.078l.008.138a.328.328,0,0,1,.272-.155C37.109,134.914,37.188,135.005,37.188,135.161Z" transform="translate(-31.625 -134.591)" fill="#707c9b"/>
            <path id="Path_1195" data-name="Path 1195" d="M37.827,135.659h-.09v-1.138l.09-.011Zm.113-.447.375.447h-.108l-.371-.443.34-.367h.1Z" transform="translate(-31.851 -134.51)" fill="#707c9b"/>
            <path id="Path_1196" data-name="Path 1196" d="M39.826,135.333c0,.261-.13.423-.343.423s-.342-.161-.342-.421.131-.422.343-.422S39.826,135.069,39.826,135.333Zm-.589,0c0,.228.092.346.247.346s.249-.116.249-.348-.091-.344-.248-.344S39.237,135.1,39.237,135.336Z" transform="translate(-32.131 -134.591)" fill="#707c9b"/>
            <path id="Path_1197" data-name="Path 1197" d="M40.4,134.72v.13h.214l-.013.073h-.2v.736h-.09v-.736h-.141v-.073h.141v-.133a.2.2,0,0,1,.224-.207.444.444,0,0,1,.189.043l-.031.066a.369.369,0,0,0-.153-.035C40.444,134.584,40.4,134.624,40.4,134.72Z" transform="translate(-32.336 -134.51)" fill="#707c9b"/>
            <path id="Path_1198" data-name="Path 1198" d="M41.826,135.659a.3.3,0,0,1-.17.051.186.186,0,0,1-.2-.213v-.54h-.136v-.073h.136v-.193l.09-.011v.2h.209l-.011.073h-.2v.535c0,.094.037.141.118.141a.226.226,0,0,0,.124-.038Z" transform="translate(-32.567 -134.544)" fill="#707c9b"/>
            <path id="Path_1199" data-name="Path 1199" d="M42.736,135.333c0,.261-.13.423-.343.423s-.342-.161-.342-.421.131-.422.343-.422S42.736,135.069,42.736,135.333Zm-.589,0c0,.228.092.346.247.346s.249-.116.249-.348-.091-.344-.247-.344S42.147,135.1,42.147,135.336Z" transform="translate(-32.712 -134.591)" fill="#707c9b"/>
            <path id="Path_1200" data-name="Path 1200" d="M43.868,135.744h-.12l-.18-.725-.182.725h-.118l-.2-.809h.093l.173.74.189-.74h.1l.186.741.171-.741h.089Z" transform="translate(-32.914 -134.595)" fill="#707c9b"/>
            <path id="Path_1201" data-name="Path 1201" d="M45.155,135.161v.579h-.09v-.566c0-.134-.054-.187-.153-.187a.3.3,0,0,0-.251.167v.586h-.09v-.809h.077l.008.138a.329.329,0,0,1,.272-.155C45.076,134.914,45.155,135.005,45.155,135.161Z" transform="translate(-33.215 -134.591)" fill="#707c9b"/>
          </g>
        </g>
        <g id="Group_1286" data-name="Group 1286" transform="translate(1.33 18.12)">
          <g id="Group_1285" data-name="Group 1285">
            <path id="Path_1202" data-name="Path 1202" d="M31.635,140.412c0,.343-.114.535-.347.535s-.346-.191-.346-.535.114-.534.346-.534S31.635,140.07,31.635,140.412Zm-.544,0c0,.3.068.423.2.423s.2-.118.2-.423-.07-.421-.2-.421S31.091,140.109,31.091,140.412Z" transform="translate(-30.943 -139.878)" fill="#707c9b"/>
            <path id="Path_1203" data-name="Path 1203" d="M32.717,140.412c0,.343-.114.535-.347.535s-.347-.191-.347-.535.114-.534.347-.534S32.717,140.07,32.717,140.412Zm-.545,0c0,.3.069.423.2.423s.2-.118.2-.423-.07-.421-.2-.421S32.172,140.109,32.172,140.412Z" transform="translate(-31.159 -139.878)" fill="#707c9b"/>
            <path id="Path_1204" data-name="Path 1204" d="M33.79,140.673h-.134v.255h-.138v-.255h-.442v-.1l.311-.693.119.05-.28.632h.294l.013-.278h.123v.278h.134Z" transform="translate(-31.369 -139.878)" fill="#707c9b"/>
            <path id="Path_1205" data-name="Path 1205" d="M34.781,140.281c0,.428-.17.572-.551.682l-.032-.107c.259-.074.425-.193.435-.427a.272.272,0,0,1-.231.124.3.3,0,0,1-.287-.333.323.323,0,0,1,.331-.342C34.67,139.878,34.781,140.037,34.781,140.281Zm-.144.032c0-.234-.058-.322-.186-.322s-.19.084-.19.232.071.218.172.218A.241.241,0,0,0,34.637,140.313Z" transform="translate(-31.576 -139.878)" fill="#707c9b"/>
            <path id="Path_1206" data-name="Path 1206" d="M35.846,140.652c0,.173-.148.295-.359.295s-.355-.122-.355-.291a.286.286,0,0,1,.2-.27.254.254,0,0,1-.161-.241.285.285,0,0,1,.315-.267.282.282,0,0,1,.314.262c0,.1-.058.174-.176.234A.294.294,0,0,1,35.846,140.652Zm-.148,0c0-.112-.059-.162-.227-.218l-.038-.014a.238.238,0,0,0-.151.234c0,.113.078.179.207.179A.184.184,0,0,0,35.7,140.654Zm-.383-.508c0,.107.073.146.192.184l.026.01a.207.207,0,0,0,.132-.194.176.176,0,0,0-.35,0Z" transform="translate(-31.779 -139.878)" fill="#707c9b"/>
            <path id="Path_1207" data-name="Path 1207" d="M36.774,140.141a.236.236,0,0,1-.2.238.239.239,0,0,1,.234.251.321.321,0,0,1-.353.317.386.386,0,0,1-.311-.139l.085-.078a.291.291,0,0,0,.221.1.192.192,0,0,0,.209-.2c0-.142-.08-.186-.206-.186h-.077l.017-.11h.052a.174.174,0,0,0,.187-.182.154.154,0,0,0-.171-.158.292.292,0,0,0-.214.093L36.173,140a.415.415,0,0,1,.3-.122A.273.273,0,0,1,36.774,140.141Z" transform="translate(-31.981 -139.878)" fill="#707c9b"/>
            <path id="Path_1208" data-name="Path 1208" d="M37.74,140.009h-.4v.3a.363.363,0,0,1,.165-.04.291.291,0,0,1,.294.328.336.336,0,0,1-.359.349.4.4,0,0,1-.306-.131l.086-.083a.278.278,0,0,0,.218.1.207.207,0,0,0,.212-.237c0-.159-.082-.215-.189-.215a.322.322,0,0,0-.146.036H37.2V139.9h.56Z" transform="translate(-32.178 -139.882)" fill="#707c9b"/>
          </g>
        </g>
        <g id="Group_1288" data-name="Group 1288" transform="translate(11.347 18.12)">
          <g id="Group_1287" data-name="Group 1287">
            <path id="Path_1209" data-name="Path 1209" d="M44.123,140.281c0,.428-.17.572-.551.682l-.033-.107c.26-.074.426-.193.436-.427a.272.272,0,0,1-.232.124.3.3,0,0,1-.286-.333.322.322,0,0,1,.331-.342C44.012,139.878,44.123,140.037,44.123,140.281Zm-.144.032c0-.234-.058-.322-.186-.322s-.19.084-.19.232.071.218.171.218A.243.243,0,0,0,43.979,140.313Z" transform="translate(-43.458 -139.878)" fill="#707c9b"/>
            <path id="Path_1210" data-name="Path 1210" d="M45.188,140.652c0,.173-.149.295-.359.295s-.354-.122-.354-.291a.285.285,0,0,1,.2-.27.254.254,0,0,1-.161-.241.318.318,0,0,1,.627,0c0,.1-.058.174-.176.234A.294.294,0,0,1,45.188,140.652Zm-.149,0c0-.112-.058-.162-.226-.218l-.038-.014a.237.237,0,0,0-.151.234c0,.113.078.179.206.179A.184.184,0,0,0,45.039,140.654Zm-.382-.508c0,.107.073.146.191.184l.027.01a.208.208,0,0,0,.131-.194.176.176,0,0,0-.35,0Z" transform="translate(-43.661 -139.878)" fill="#707c9b"/>
            <path id="Path_1211" data-name="Path 1211" d="M46.115,140.009h-.4v.3a.363.363,0,0,1,.165-.04.291.291,0,0,1,.294.328.336.336,0,0,1-.359.349.4.4,0,0,1-.306-.131l.086-.083a.279.279,0,0,0,.218.1c.13,0,.212-.086.212-.237s-.082-.215-.189-.215a.322.322,0,0,0-.146.036h-.112V139.9h.56Z" transform="translate(-43.867 -139.882)" fill="#707c9b"/>
            <path id="Path_1212" data-name="Path 1212" d="M47.218,140.673h-.134v.255h-.138v-.255H46.5v-.1l.311-.693.119.05-.279.632h.294l.012-.278h.124v.278h.134Z" transform="translate(-44.066 -139.878)" fill="#707c9b"/>
            <path id="Path_1213" data-name="Path 1213" d="M48.1,140.141a.246.246,0,0,0,.032.488.32.32,0,0,1-.352.317.386.386,0,0,1-.311-.139l.085-.078a.291.291,0,0,0,.221.1.192.192,0,0,0,.209-.2c0-.142-.081-.186-.206-.186H47.7l.016-.11h.053a.174.174,0,0,0,.187-.182.155.155,0,0,0-.172-.158.291.291,0,0,0-.213.093L47.5,140a.416.416,0,0,1,.3-.122A.274.274,0,0,1,48.1,140.141Z" transform="translate(-44.258 -139.878)" fill="#707c9b"/>
            <path id="Path_1214" data-name="Path 1214" d="M49.2,140.652c0,.173-.148.295-.359.295s-.354-.122-.354-.291a.286.286,0,0,1,.2-.27.254.254,0,0,1-.161-.241.319.319,0,0,1,.628,0c0,.1-.059.174-.177.234A.294.294,0,0,1,49.2,140.652Zm-.148,0c0-.112-.059-.162-.227-.218l-.038-.014a.237.237,0,0,0-.151.234c0,.113.078.179.207.179S49.056,140.761,49.056,140.654Zm-.383-.508c0,.107.073.146.192.184l.026.01a.207.207,0,0,0,.132-.194.176.176,0,0,0-.35,0Z" transform="translate(-44.463 -139.878)" fill="#707c9b"/>
            <path id="Path_1215" data-name="Path 1215" d="M50.271,140.412c0,.343-.114.535-.347.535s-.347-.191-.347-.535.114-.534.347-.534S50.271,140.07,50.271,140.412Zm-.545,0c0,.3.069.423.2.423s.2-.118.2-.423-.07-.421-.2-.421S49.726,140.109,49.726,140.412Z" transform="translate(-44.68 -139.878)" fill="#707c9b"/>
          </g>
        </g>
        <g id="Group_1290" data-name="Group 1290" transform="translate(21.521 18.12)">
          <g id="Group_1289" data-name="Group 1289">
            <path id="Path_1216" data-name="Path 1216" d="M56.885,140.673h-.135v.255h-.138v-.255H56.17v-.1l.311-.693.119.05-.28.632h.294l.013-.278h.123v.278h.135Z" transform="translate(-56.17 -139.878)" fill="#707c9b"/>
            <path id="Path_1217" data-name="Path 1217" d="M57.907,140.578a.337.337,0,0,1-.329.369c-.252,0-.348-.207-.348-.5,0-.339.146-.564.391-.564a.368.368,0,0,1,.213.064l-.055.094a.309.309,0,0,0-.159-.045c-.15,0-.24.156-.248.393a.291.291,0,0,1,.535.194Zm-.144,0c0-.164-.069-.222-.166-.222a.269.269,0,0,0-.223.142c.006.226.066.331.2.331C57.7,140.834,57.763,140.734,57.763,140.582Z" transform="translate(-56.382 -139.878)" fill="#707c9b"/>
            <path id="Path_1218" data-name="Path 1218" d="M58.767,140l-.387.944-.13-.043.373-.891h-.458V139.9h.6Z" transform="translate(-56.568 -139.882)" fill="#707c9b"/>
            <path id="Path_1219" data-name="Path 1219" d="M59.65,140.161c0,.194-.123.331-.441.648h.466l-.017.119h-.611v-.113c.365-.38.455-.479.455-.648a.16.16,0,0,0-.17-.172.253.253,0,0,0-.21.113l-.1-.074a.382.382,0,0,1,.314-.156A.284.284,0,0,1,59.65,140.161Z" transform="translate(-56.74 -139.878)" fill="#707c9b"/>
            <path id="Path_1220" data-name="Path 1220" d="M60.737,140.652c0,.173-.149.295-.359.295s-.354-.122-.354-.291a.285.285,0,0,1,.2-.27.253.253,0,0,1-.16-.241.318.318,0,0,1,.627,0c0,.1-.058.174-.176.234A.294.294,0,0,1,60.737,140.652Zm-.149,0c0-.112-.059-.162-.226-.218l-.038-.014a.237.237,0,0,0-.152.234c0,.113.079.179.207.179A.184.184,0,0,0,60.588,140.654Zm-.382-.508c0,.107.072.146.191.184l.026.01a.207.207,0,0,0,.131-.194.175.175,0,0,0-.349,0Z" transform="translate(-56.939 -139.878)" fill="#707c9b"/>
            <path id="Path_1221" data-name="Path 1221" d="M61.756,140.281c0,.428-.17.572-.551.682l-.032-.107c.259-.074.425-.193.435-.427a.272.272,0,0,1-.232.124.3.3,0,0,1-.286-.333.323.323,0,0,1,.331-.342C61.645,139.878,61.756,140.037,61.756,140.281Zm-.144.032c0-.234-.058-.322-.186-.322s-.19.084-.19.232.071.218.171.218A.243.243,0,0,0,61.612,140.313Z" transform="translate(-57.152 -139.878)" fill="#707c9b"/>
            <path id="Path_1222" data-name="Path 1222" d="M62.534,140.932h-.142v-.883l-.241.147-.062-.1.32-.2h.125Z" transform="translate(-57.352 -139.882)" fill="#707c9b"/>
          </g>
        </g>
        <g id="Group_1292" data-name="Group 1292" transform="translate(0.956 11.39)">
          <g id="Group_1291" data-name="Group 1291">
            <path id="Path_1223" data-name="Path 1223" d="M31.606,132.163c0,.443-.229.692-.564.692s-.566-.241-.566-.69.231-.695.566-.695S31.606,131.713,31.606,132.163Zm-.934,0c0,.387.151.539.37.539s.369-.152.369-.54-.141-.542-.369-.542S30.672,131.779,30.672,132.165Z" transform="translate(-30.476 -131.47)" fill="#707c9b"/>
            <path id="Path_1224" data-name="Path 1224" d="M33.2,132.837h-.247l-.543-1.137c.01.11.025.274.025.523v.614h-.173V131.5H32.5l.55,1.138c0-.031-.025-.245-.025-.408v-.73H33.2Z" transform="translate(-30.832 -131.476)" fill="#707c9b"/>
            <path id="Path_1225" data-name="Path 1225" d="M34.619,131.646H34.1v.437h.451v.148H34.1v.458h.555v.148h-.74V131.5h.724Z" transform="translate(-31.163 -131.476)" fill="#707c9b"/>
            <path id="Path_1226" data-name="Path 1226" d="M36.6,132.21h-.563v.628h-.184V131.5h.184v.559H36.6V131.5h.185v1.338H36.6Z" transform="translate(-31.549 -131.476)" fill="#707c9b"/>
            <path id="Path_1227" data-name="Path 1227" d="M38.411,132.408a.429.429,0,0,1-.47.452.424.424,0,0,1-.466-.452V131.5h.185v.895c0,.208.09.311.281.311s.283-.1.283-.311V131.5h.186Z" transform="translate(-31.873 -131.476)" fill="#707c9b"/>
            <path id="Path_1228" data-name="Path 1228" d="M40.04,132.837h-.247L39.25,131.7c.01.11.025.274.025.523v.614H39.1V131.5h.24l.55,1.138c0-.031-.025-.245-.025-.408v-.73h.172Z" transform="translate(-32.198 -131.476)" fill="#707c9b"/>
            <path id="Path_1229" data-name="Path 1229" d="M41.706,132.162a.588.588,0,0,1-.629.676h-.32V131.5h.279C41.378,131.5,41.706,131.605,41.706,132.162Zm-.765-.515v1.045h.15c.21,0,.419-.09.419-.53s-.219-.515-.433-.515Z" transform="translate(-32.528 -131.476)" fill="#707c9b"/>
            <path id="Path_1230" data-name="Path 1230" d="M42.709,132.27H42.5v.567h-.185V131.5h.352c.334,0,.508.128.508.379a.35.35,0,0,1-.289.359l.361.6h-.219Zm-.022-.142c.186,0,.293-.07.293-.251s-.1-.235-.315-.235H42.5v.485Z" transform="translate(-32.839 -131.476)" fill="#707c9b"/>
            <path id="Path_1231" data-name="Path 1231" d="M44.485,131.646h-.519v.437h.451v.148h-.451v.458h.555v.148h-.74V131.5h.724Z" transform="translate(-33.132 -131.476)" fill="#707c9b"/>
            <path id="Path_1232" data-name="Path 1232" d="M46.027,132.162a.589.589,0,0,1-.63.676h-.32V131.5h.279C45.7,131.5,46.027,131.605,46.027,132.162Zm-.765-.515v1.045h.149c.21,0,.419-.09.419-.53s-.219-.515-.433-.515Z" transform="translate(-33.391 -131.476)" fill="#707c9b"/>
            <path id="Path_1233" data-name="Path 1233" d="M48.228,132.162a.588.588,0,0,1-.629.676h-.32V131.5h.279C47.9,131.5,48.228,131.605,48.228,132.162Zm-.765-.515v1.045h.15c.21,0,.419-.09.419-.53s-.219-.515-.433-.515Z" transform="translate(-33.83 -131.476)" fill="#707c9b"/>
            <path id="Path_1234" data-name="Path 1234" d="M49.859,132.163c0,.443-.23.692-.565.692s-.565-.241-.565-.69.231-.695.565-.695S49.859,131.713,49.859,132.163Zm-.935,0c0,.387.152.539.37.539s.369-.152.369-.54-.14-.542-.369-.542S48.924,131.779,48.924,132.165Z" transform="translate(-34.12 -131.47)" fill="#707c9b"/>
            <path id="Path_1235" data-name="Path 1235" d="M50.7,132.676h.55l-.022.161h-.712V131.5H50.7Z" transform="translate(-34.476 -131.476)" fill="#707c9b"/>
            <path id="Path_1236" data-name="Path 1236" d="M51.9,132.676h.55l-.022.161H51.72V131.5H51.9Z" transform="translate(-34.717 -131.476)" fill="#707c9b"/>
            <path id="Path_1237" data-name="Path 1237" d="M53.492,132.5h-.507l-.1.336H52.7l.43-1.338h.233l.427,1.338h-.194Zm-.045-.15-.208-.7-.21.7Z" transform="translate(-34.912 -131.476)" fill="#707c9b"/>
            <path id="Path_1238" data-name="Path 1238" d="M54.706,132.27H54.5v.567h-.184V131.5h.351c.335,0,.509.128.509.379a.35.35,0,0,1-.29.359l.362.6h-.22Zm-.022-.142c.186,0,.294-.07.294-.251s-.1-.235-.315-.235H54.5v.485Z" transform="translate(-35.235 -131.476)" fill="#707c9b"/>
            <path id="Path_1239" data-name="Path 1239" d="M56.486,131.625l-.1.113a.46.46,0,0,0-.3-.117c-.134,0-.241.062-.241.19,0,.113.052.166.294.241.213.066.4.149.4.406,0,.233-.177.4-.478.4a.624.624,0,0,1-.455-.173l.1-.114a.511.511,0,0,0,.349.136c.158,0,.287-.078.287-.239,0-.13-.062-.188-.289-.259-.261-.079-.4-.178-.4-.386a.374.374,0,0,1,.422-.35A.564.564,0,0,1,56.486,131.625Z" transform="translate(-35.491 -131.47)" fill="#707c9b"/>
          </g>
        </g>
        <g id="Group_1294" data-name="Group 1294" transform="translate(0.956 9.09)">
          <g id="Group_1293" data-name="Group 1293">
            <path id="Path_1240" data-name="Path 1240" d="M31.459,128.743l-.109.113a.418.418,0,0,0-.293-.109c-.193,0-.385.146-.385.539s.13.543.366.543a.5.5,0,0,0,.254-.062v-.4h-.237l-.021-.15h.441v.647a.851.851,0,0,1-.451.118c-.332,0-.547-.231-.547-.694a.611.611,0,0,1,.577-.691A.575.575,0,0,1,31.459,128.743Z" transform="translate(-30.476 -128.596)" fill="#707c9b"/>
            <path id="Path_1241" data-name="Path 1241" d="M32.506,129.4H32.3v.567h-.185v-1.338h.352c.334,0,.508.128.508.379a.35.35,0,0,1-.289.359l.361.6h-.219Zm-.022-.142c.186,0,.294-.07.294-.251s-.1-.235-.315-.235H32.3v.485Z" transform="translate(-30.803 -128.602)" fill="#707c9b"/>
            <path id="Path_1242" data-name="Path 1242" d="M34.575,129.289c0,.443-.229.692-.565.692s-.565-.241-.565-.69.231-.695.565-.695S34.575,128.839,34.575,129.289Zm-.934,0c0,.387.151.539.369.539s.37-.152.37-.54-.141-.542-.37-.542S33.641,128.9,33.641,129.291Z" transform="translate(-31.069 -128.596)" fill="#707c9b"/>
            <path id="Path_1243" data-name="Path 1243" d="M36.048,128.728l-.1.118a.392.392,0,0,0-.259-.1c-.2,0-.371.136-.371.539,0,.387.162.539.369.539a.452.452,0,0,0,.284-.113l.093.118a.521.521,0,0,1-.383.15c-.324,0-.559-.243-.559-.694s.253-.691.555-.691A.529.529,0,0,1,36.048,128.728Z" transform="translate(-31.403 -128.596)" fill="#707c9b"/>
            <path id="Path_1244" data-name="Path 1244" d="M37.29,128.772h-.519v.437h.451v.148h-.451v.458h.555v.148h-.74v-1.338h.724Z" transform="translate(-31.696 -128.602)" fill="#707c9b"/>
            <path id="Path_1245" data-name="Path 1245" d="M38.274,129.4h-.207v.567h-.185v-1.338h.351c.335,0,.509.128.509.379a.35.35,0,0,1-.289.359l.361.6H38.6Zm-.021-.142c.186,0,.293-.07.293-.251s-.1-.235-.315-.235h-.165v.485Z" transform="translate(-31.954 -128.602)" fill="#707c9b"/>
            <path id="Path_1246" data-name="Path 1246" d="M39.662,129.449v.515h-.186v-.513l-.431-.825h.2l.327.663.326-.663h.193Z" transform="translate(-32.186 -128.602)" fill="#707c9b"/>
            <path id="Path_1247" data-name="Path 1247" d="M41.956,128.751l-.1.113a.462.462,0,0,0-.306-.117c-.134,0-.24.062-.24.19,0,.113.052.166.293.241.214.066.4.149.4.406,0,.233-.177.4-.478.4a.626.626,0,0,1-.455-.173l.1-.114a.515.515,0,0,0,.35.136c.157,0,.287-.078.287-.239,0-.13-.062-.188-.29-.259-.26-.079-.4-.178-.4-.386a.374.374,0,0,1,.422-.35A.566.566,0,0,1,41.956,128.751Z" transform="translate(-32.59 -128.596)" fill="#707c9b"/>
            <path id="Path_1248" data-name="Path 1248" d="M43.274,128.782H42.9v1.181h-.184v-1.181h-.38v-.157h.955Z" transform="translate(-32.844 -128.602)" fill="#707c9b"/>
            <path id="Path_1249" data-name="Path 1249" d="M44.745,129.289c0,.443-.23.692-.565.692s-.566-.241-.566-.69.231-.695.566-.695S44.745,128.839,44.745,129.289Zm-.935,0c0,.387.152.539.37.539s.369-.152.369-.54-.14-.542-.369-.542S43.81,128.9,43.81,129.291Z" transform="translate(-33.099 -128.596)" fill="#707c9b"/>
            <path id="Path_1250" data-name="Path 1250" d="M45.792,129.4h-.208v.567H45.4v-1.338h.351c.334,0,.508.128.508.379a.35.35,0,0,1-.289.359l.361.6h-.219Zm-.022-.142c.186,0,.294-.07.294-.251s-.1-.235-.315-.235h-.165v.485Z" transform="translate(-33.455 -128.602)" fill="#707c9b"/>
            <path id="Path_1251" data-name="Path 1251" d="M47.568,128.772h-.519v.437H47.5v.148h-.451v.458H47.6v.148h-.74v-1.338h.724Z" transform="translate(-33.747 -128.602)" fill="#707c9b"/>
          </g>
        </g>
        <g id="Group_1296" data-name="Group 1296" transform="translate(39.514 0.511)">
          <g id="Group_1295" data-name="Group 1295">
            <path id="Path_1252" data-name="Path 1252" d="M79.275,118.407c0,.193-.124.331-.441.648H79.3l-.017.119h-.611v-.113c.365-.38.455-.479.455-.648a.159.159,0,0,0-.17-.171.253.253,0,0,0-.21.113l-.1-.074a.383.383,0,0,1,.314-.156A.285.285,0,0,1,79.275,118.407Z" transform="translate(-78.65 -117.926)" fill="#707c9b"/>
            <path id="Path_1253" data-name="Path 1253" d="M80.353,118.919h-.134v.255H80.08v-.255h-.442v-.1l.311-.693.119.05-.28.632h.294l.013-.279h.124v.279h.134Z" transform="translate(-78.847 -117.926)" fill="#707c9b"/>
            <path id="Path_1254" data-name="Path 1254" d="M81.234,117.905l-.357,1.381-.122-.03.359-1.379Z" transform="translate(-79.07 -117.877)" fill="#707c9b"/>
            <path id="Path_1255" data-name="Path 1255" d="M82.262,118.658c0,.343-.114.535-.347.535s-.346-.191-.346-.535.114-.534.346-.534S82.262,118.316,82.262,118.658Zm-.544,0c0,.3.068.422.2.422s.2-.117.2-.422-.07-.421-.2-.421S81.718,118.355,81.718,118.658Z" transform="translate(-79.233 -117.926)" fill="#707c9b"/>
            <path id="Path_1256" data-name="Path 1256" d="M83.217,118.407c0,.193-.124.331-.441.648h.466l-.018.119h-.611v-.113c.365-.38.455-.479.455-.648a.16.16,0,0,0-.17-.171.254.254,0,0,0-.21.113l-.1-.074a.384.384,0,0,1,.315-.156A.285.285,0,0,1,83.217,118.407Z" transform="translate(-79.437 -117.926)" fill="#707c9b"/>
            <path id="Path_1257" data-name="Path 1257" d="M84.185,117.905l-.357,1.381-.122-.03.359-1.379Z" transform="translate(-79.659 -117.877)" fill="#707c9b"/>
            <path id="Path_1258" data-name="Path 1258" d="M84.966,119.178h-.142V118.3l-.242.147-.062-.1.32-.2h.126Z" transform="translate(-79.822 -117.93)" fill="#707c9b"/>
            <path id="Path_1259" data-name="Path 1259" d="M86.09,118.658c0,.343-.114.535-.346.535s-.347-.191-.347-.535.114-.534.347-.534S86.09,118.316,86.09,118.658Zm-.544,0c0,.3.068.422.2.422s.2-.117.2-.422-.07-.421-.2-.421S85.546,118.355,85.546,118.658Z" transform="translate(-79.997 -117.926)" fill="#707c9b"/>
          </g>
        </g>
        <g id="Group_1297" data-name="Group 1297" transform="translate(33.328 0.398)">
          <path id="Path_1260" data-name="Path 1260" d="M71.877,118.4a.592.592,0,0,1-.634.68h-.323v-1.347H71.2C71.547,117.736,71.877,117.844,71.877,118.4Zm-.771-.519v1.052h.15c.211,0,.423-.09.423-.533s-.221-.519-.436-.519Z" transform="translate(-70.921 -117.736)" fill="#707c9b"/>
          <path id="Path_1261" data-name="Path 1261" d="M72.991,118.745h-.51l-.1.338h-.187l.431-1.347h.235l.431,1.347h-.2Zm-.044-.15-.21-.7-.211.7Z" transform="translate(-71.175 -117.736)" fill="#707c9b"/>
          <path id="Path_1262" data-name="Path 1262" d="M74.434,117.894H74.06v1.189h-.186v-1.189h-.383v-.158h.962Z" transform="translate(-71.434 -117.736)" fill="#707c9b"/>
          <path id="Path_1263" data-name="Path 1263" d="M75.67,117.885h-.522v.44H75.6v.148h-.453v.462h.559v.148h-.744v-1.347h.729Z" transform="translate(-71.728 -117.736)" fill="#707c9b"/>
        </g>
        <g id="Group_1298" data-name="Group 1298" transform="translate(28.476 7.456)">
          <path id="Path_1264" data-name="Path 1264" d="M66.182,129a.345.345,0,0,0-.086-.247.866.866,0,0,0-.312-.178,1.749,1.749,0,0,1-.627-.332.691.691,0,0,1-.2-.531.7.7,0,0,1,.2-.517.891.891,0,0,1,.554-.235v-.4h.3v.406a.827.827,0,0,1,.527.263.791.791,0,0,1,.184.562l0,.01h-.534a.472.472,0,0,0-.091-.313.38.38,0,0,0-.514-.018.363.363,0,0,0-.079.247.319.319,0,0,0,.083.231,1.026,1.026,0,0,0,.319.185,1.628,1.628,0,0,1,.619.331.707.707,0,0,1,.206.537.69.69,0,0,1-.2.52.9.9,0,0,1-.554.23v.369h-.3v-.368a.991.991,0,0,1-.591-.24.75.75,0,0,1-.222-.607l.006-.011H65.4a.438.438,0,0,0,.116.342.446.446,0,0,0,.3.1.371.371,0,0,0,.275-.09A.325.325,0,0,0,66.182,129Z" transform="translate(-64.859 -126.554)" fill="#707c9b"/>
        </g>
        <path id="Path_1265" data-name="Path 1265" d="M86.177,119.978H76.323a.04.04,0,0,1,0-.081h9.853a.04.04,0,0,1,0,.081Z" transform="translate(-38.663 -117.77)" fill="#707c9b"/>
        <path id="Path_1266" data-name="Path 1266" d="M84.548,141.7H68.166a.04.04,0,0,1-.04-.041.04.04,0,0,1,.04-.04H84.548a.04.04,0,0,1,.04.04A.04.04,0,0,1,84.548,141.7Z" transform="translate(-37.035 -122.105)" fill="#707c9b"/>
        <path id="Path_1267" data-name="Path 1267" d="M53.94,130.826H29.372a.04.04,0,0,1-.04-.041.04.04,0,0,1,.04-.04H53.94a.04.04,0,0,1,.041.04A.041.041,0,0,1,53.94,130.826Z" transform="translate(-29.291 -119.935)" fill="#707c9b"/>
        <path id="Path_1268" data-name="Path 1268" d="M53.94,133.651H29.372a.04.04,0,0,1,0-.081H53.94a.04.04,0,1,1,0,.081Z" transform="translate(-29.291 -120.499)" fill="#707c9b"/>
        <path id="Path_1269" data-name="Path 1269" d="M45.013,136.477H29.372a.04.04,0,0,1-.04-.041.04.04,0,0,1,.04-.04H45.013a.04.04,0,0,1,.04.04A.04.04,0,0,1,45.013,136.477Z" transform="translate(-29.291 -121.063)" fill="#707c9b"/>
        <path id="Path_1270" data-name="Path 1270" d="M37.356,141.7H29.372a.04.04,0,0,1-.04-.041.04.04,0,0,1,.04-.04h7.984a.04.04,0,0,1,.041.04A.041.041,0,0,1,37.356,141.7Z" transform="translate(-29.291 -122.105)" fill="#707c9b"/>
        <path id="Path_1271" data-name="Path 1271" d="M49.869,141.7H41.885a.04.04,0,0,1-.04-.041.04.04,0,0,1,.04-.04h7.984a.04.04,0,0,1,.04.04A.04.04,0,0,1,49.869,141.7Z" transform="translate(-31.789 -122.105)" fill="#707c9b"/>
        <path id="Path_1272" data-name="Path 1272" d="M62.381,141.7H54.4a.041.041,0,0,1-.041-.041.04.04,0,0,1,.041-.04h7.983a.04.04,0,0,1,.041.04A.041.041,0,0,1,62.381,141.7Z" transform="translate(-34.287 -122.105)" fill="#707c9b"/>
        <path id="Path_1273" data-name="Path 1273" d="M84.629,130.02H68.57a.041.041,0,0,1-.041-.041v-3.23a.04.04,0,0,1,.041-.04H84.629a.04.04,0,0,1,.04.04v3.23A.04.04,0,0,1,84.629,130.02Zm-16.019-.081H84.588v-3.15H68.61Z" transform="translate(-37.116 -119.129)" fill="#707c9b"/>
        <path id="Path_1274" data-name="Path 1274" d="M70.419,138.679a1.687,1.687,0,0,1,.067-.372,5.321,5.321,0,0,1,.4-.977c.2-.4.476-.881.8-1.42a13.584,13.584,0,0,0,.991-1.842c.062-.16.1-.419-.057-.415-.089.045-.128.317-.145.5a12.546,12.546,0,0,0-.021,1.282c.036.884.074,1.815.114,2.779a25.174,25.174,0,0,1,0,2.981,2.658,2.658,0,0,1-.158.758c-.042.116-.172.268-.332.224a.185.185,0,0,1-.162-.154.581.581,0,0,1,0-.206,5.637,5.637,0,0,1,.534-1.457,12.783,12.783,0,0,1,.761-1.346,4.764,4.764,0,0,1,.467-.616c.1-.086.174-.2.343-.216.114.012.109.142.106.193a1.175,1.175,0,0,1-.026.194,6.621,6.621,0,0,0-.146.731c-.026.092.123-.068.19-.142a2.307,2.307,0,0,1,.275-.263.337.337,0,0,1,.385-.066c.117.122.074.267.07.385-.017.227-.122.525.026.659a1.286,1.286,0,0,0,.66-.132c.221-.08.436-.174.646-.271.422-.191.822-.406,1.211-.615.776-.425,1.487-.864,2.139-1.277,1.3-.833,2.347-1.58,3.075-2.11l1.137-.842a.026.026,0,0,1,.037,0,.027.027,0,0,1,0,.037l-1.137.845c-.728.531-1.775,1.281-3.073,2.118-.652.415-1.363.856-2.139,1.284-.39.21-.791.426-1.214.619-.211.1-.427.193-.652.275a1.245,1.245,0,0,1-.721.128c-.135-.09-.11-.251-.109-.366l.046-.365c.012-.113.026-.256-.04-.315-.085-.057-.2,0-.295.066a2.242,2.242,0,0,0-.263.254c-.043.046-.085.093-.134.137a.208.208,0,0,1-.1.058c-.077.006-.09-.071-.089-.1a6.021,6.021,0,0,1,.146-.751c.018-.107.051-.287-.011-.294-.089,0-.2.108-.277.192a4.7,4.7,0,0,0-.457.607,12.657,12.657,0,0,0-.754,1.337A5.587,5.587,0,0,0,72,141.824c-.007.122-.023.255.1.264.1.03.187-.062.233-.174a2.568,2.568,0,0,0,.149-.729,25.1,25.1,0,0,0-.009-2.967c-.042-.965-.082-1.9-.119-2.781a12.6,12.6,0,0,1,.018-1.294,2.2,2.2,0,0,1,.046-.313c.022-.086.049-.244.2-.283a.227.227,0,0,1,.223.252.946.946,0,0,1-.059.3,13.469,13.469,0,0,1-1,1.866c-.32.539-.591,1.013-.792,1.414a5.278,5.278,0,0,0-.388.956,1.679,1.679,0,0,0-.063.355.058.058,0,1,1-.117,0Z" transform="translate(-37.493 -120.494)" fill="#707c9b"/>
      </g>
    </g>
    <g id="Group_1301" data-name="Group 1301" transform="translate(45.473 137.688)">
      <path id="Path_1275" data-name="Path 1275" d="M51.43,146.731s-1.072.082-1.072.323,1.052.3,1.052.3Z" transform="translate(-50.358 -144.179)" fill="#929db7"/>
      <path id="Path_1276" data-name="Path 1276" d="M93.15,145.031a1.289,1.289,0,0,0-.96-1.064c-1.654-.513-7.492-.637-9.266.047-.77.3.037.588.563.593s.413-.419.413-.419,5.052-.488,6.967.623Z" transform="translate(-56.796 -143.542)" fill="#c3cddd"/>
      <path id="Path_1277" data-name="Path 1277" d="M83.674,144.151c-.3.427-1.039.147-1.041.146-.116.216.45.392.856.4.527,0,.413-.419.413-.419s5.052-.488,6.967.623l.786.066.142-.089C92.575,143.794,84.023,143.859,83.674,144.151Z" transform="translate(-56.798 -143.627)" fill="#929db7"/>
      <path id="Path_1278" data-name="Path 1278" d="M52.255,147.014a.454.454,0,1,0-.451.507A.481.481,0,0,0,52.255,147.014Z" transform="translate(-50.557 -144.134)" fill="#c3cddd"/>
      <path id="Path_1279" data-name="Path 1279" d="M51.114,147.073a.55.55,0,0,1,.07-.27c-.235.034-.665.108-.665.2s.362.1.6.109C51.116,147.1,51.114,147.086,51.114,147.073Z" transform="translate(-50.39 -144.193)" fill="#c3cddd"/>
      <path id="Path_1280" data-name="Path 1280" d="M51.916,147.385l2.646.526V145.83l-2.646.543Z" transform="translate(-50.669 -143.999)" fill="#c3cddd"/>
      <path id="Path_1281" data-name="Path 1281" d="M51.8,147.647l2.646.526v-.7l-3.1-.337A.481.481,0,0,0,51.8,147.647Z" transform="translate(-50.557 -144.26)" fill="#929db7"/>
      <path id="Path_1282" data-name="Path 1282" d="M59.742,146.772a1.324,1.324,0,1,0-1.316,1.477A1.4,1.4,0,0,0,59.742,146.772Z" transform="translate(-51.706 -143.892)" fill="#363b4c"/>
      <path id="Path_1283" data-name="Path 1283" d="M51.38,146.8l2.2-.139.3-.5-2.372.415A.516.516,0,0,0,51.38,146.8Z" transform="translate(-50.562 -144.065)" fill="#dfe7ef"/>
      <ellipse id="Ellipse_370" data-name="Ellipse 370" cx="0.919" cy="1.033" rx="0.919" ry="1.033" transform="translate(2.973 1.847)" fill="#363b4c"/>
      <path id="Path_1284" data-name="Path 1284" d="M55.091,147.8a11.625,11.625,0,0,0,2.932.445v-2.955a16.377,16.377,0,0,0-2.932.451Z" transform="translate(-51.303 -143.892)" fill="#363b4c"/>
      <rect id="Rectangle_1253" data-name="Rectangle 1253" width="16.361" height="2.955" transform="translate(6.72 1.403)" fill="#363b4c"/>
      <path id="Path_1285" data-name="Path 1285" d="M54.4,146.072a1,1,0,0,0-.286.5c.443-.033,2.507-.18,3.615-.18H73.4v-.674H57.73A24,24,0,0,0,54.4,146.072Z" transform="translate(-51.108 -143.976)" fill="#4a5e72"/>
      <path id="Path_1286" data-name="Path 1286" d="M57.6,147.838a24.988,24.988,0,0,1-3.489-.4.964.964,0,0,0,.787.786v.006a11.625,11.625,0,0,0,2.932.445H74.188v-.84Z" transform="translate(-51.107 -144.32)" fill="#2c313f"/>
      <path id="Path_1287" data-name="Path 1287" d="M79.341,144.907a1.8,1.8,0,0,0,0,3.575h2.026v-3.575Z" transform="translate(-55.826 -143.814)" fill="#c3cddd"/>
      <path id="Path_1288" data-name="Path 1288" d="M77.882,146.134h2.68v-.84h-2.09A1.78,1.78,0,0,0,77.882,146.134Z" transform="translate(-55.852 -143.892)" fill="#dfe7ef"/>
      <path id="Path_1289" data-name="Path 1289" d="M77.754,147.163a1.693,1.693,0,0,0,1.588,1.769h2.026v-1.769Z" transform="translate(-55.827 -144.265)" fill="#929db7"/>
      <path id="Path_1290" data-name="Path 1290" d="M83.146,146.694a1.6,1.6,0,1,0-1.591,1.787A1.7,1.7,0,0,0,83.146,146.694Z" transform="translate(-56.268 -143.814)" fill="#dfe7ef"/>
      <path id="Path_1291" data-name="Path 1291" d="M83.463,146.694a1.6,1.6,0,1,0-1.591,1.787A1.7,1.7,0,0,0,83.463,146.694Z" transform="translate(-56.331 -143.814)" fill="#363b4c"/>
      <path id="Path_1292" data-name="Path 1292" d="M82.269,148.478s6.943.014,10.877-.252v-3.07s-3.364-.342-10.877-.252Z" transform="translate(-56.728 -143.811)" fill="#363b4c"/>
      <path id="Path_1293" data-name="Path 1293" d="M80.413,147.937a1.609,1.609,0,0,0,1.486,1.149s6.943.014,10.876-.252v-.9Z" transform="translate(-56.358 -144.419)" fill="#2c313f"/>
      <path id="Path_1294" data-name="Path 1294" d="M80.385,146.391H92.77v-.674H80.692A1.827,1.827,0,0,0,80.385,146.391Z" transform="translate(-56.352 -143.976)" fill="#4a5e72"/>
      <path id="Path_1295" data-name="Path 1295" d="M96.669,146.757a1.376,1.376,0,1,0-1.366,1.535A1.458,1.458,0,0,0,96.669,146.757Z" transform="translate(-59.057 -143.877)" fill="#c3cddd"/>
      <path id="Path_1296" data-name="Path 1296" d="M96.208,146.93a.756.756,0,1,0-.751.844A.8.8,0,0,0,96.208,146.93Z" transform="translate(-59.211 -144.05)" fill="#929db7"/>
      <rect id="Rectangle_1254" data-name="Rectangle 1254" width="1.085" height="1.686" transform="translate(36.246 2.037)" fill="#929db7"/>
      <path id="Path_1297" data-name="Path 1297" d="M97.563,146.93a.756.756,0,1,0-.751.844A.8.8,0,0,0,97.563,146.93Z" transform="translate(-59.481 -144.05)" fill="#c3cddd"/>
      <path id="Path_1298" data-name="Path 1298" d="M94.081,146.757a1.459,1.459,0,0,1,1.294-1.518c-.025,0-.046-.017-.072-.017a1.545,1.545,0,0,0,0,3.07c.026,0,.047-.015.072-.017A1.459,1.459,0,0,1,94.081,146.757Z" transform="translate(-59.057 -143.877)" fill="#dfe7ef"/>
      <path id="Path_1299" data-name="Path 1299" d="M96.242,146.93a.8.8,0,0,1,.66-.823.662.662,0,0,0-.09-.02.849.849,0,0,0,0,1.686.662.662,0,0,0,.09-.021A.8.8,0,0,1,96.242,146.93Z" transform="translate(-59.481 -144.05)" fill="#dfe7ef"/>
      <path id="Path_1300" data-name="Path 1300" d="M82.881,144.256c.03-.082.668-.261.681-.1S82.841,144.364,82.881,144.256Z" transform="translate(-56.85 -143.652)" fill="#dfe7ef"/>
      <path id="Path_1301" data-name="Path 1301" d="M91.266,143.905a5.8,5.8,0,0,1,2.379.251c.428.246.319.394.167.418-.223.036-.183-.148-.636-.293C92.237,143.981,91.245,144.023,91.266,143.905Z" transform="translate(-58.524 -143.605)" fill="#dfe7ef"/>
    </g>
  </g>
</svg>
