<svg xmlns="http://www.w3.org/2000/svg" width="38.628" height="36.672" viewBox="0 0 38.628 36.672">
  <g id="Group_1267" data-name="Group 1267" transform="translate(-212.098 -186.683)">
    <g id="Group_1259" data-name="Group 1259" transform="translate(212.098 197.854)">
      <rect id="Rectangle_1201" data-name="Rectangle 1201" width="14.725" height="13.337" transform="translate(16.53 8.956)" fill="#efdfeb"/>
      <rect id="Rectangle_1202" data-name="Rectangle 1202" width="14.643" height="2.427" transform="translate(16.611 8.956)" fill="#dbc1d6"/>
      <rect id="Rectangle_1203" data-name="Rectangle 1203" width="14.725" height="13.337" transform="translate(7.298 8.956)" fill="#f9eff7"/>
      <g id="Group_1251" data-name="Group 1251" transform="translate(3.285 7.411)">
        <rect id="Rectangle_1204" data-name="Rectangle 1204" width="15.644" height="3.285" transform="translate(3.285) rotate(90)" fill="#efdfeb"/>
        <rect id="Rectangle_1205" data-name="Rectangle 1205" width="15.644" height="1.672" transform="translate(3.285) rotate(90)" fill="#dbc1d6"/>
      </g>
      <rect id="Rectangle_1206" data-name="Rectangle 1206" width="20.845" height="1.289" transform="translate(2.85 7.97)" fill="#efdfeb"/>
      <g id="Group_1252" data-name="Group 1252" transform="translate(20.409 7.411)">
        <rect id="Rectangle_1207" data-name="Rectangle 1207" width="15.644" height="3.285" transform="translate(3.285 0) rotate(90)" fill="#efdfeb"/>
        <rect id="Rectangle_1208" data-name="Rectangle 1208" width="15.644" height="1.672" transform="translate(3.285) rotate(90)" fill="#dbc1d6"/>
      </g>
      <g id="Group_1253" data-name="Group 1253" transform="translate(31.99 7.411)">
        <rect id="Rectangle_1209" data-name="Rectangle 1209" width="15.644" height="3.285" transform="translate(3.285) rotate(90)" fill="#efdfeb"/>
        <rect id="Rectangle_1210" data-name="Rectangle 1210" width="15.644" height="1.672" transform="translate(3.285 0) rotate(90)" fill="#dbc1d6"/>
      </g>
      <rect id="Rectangle_1211" data-name="Rectangle 1211" width="12.23" height="1.289" transform="translate(23.571 7.97)" fill="#dbc1d6"/>
      <rect id="Rectangle_1212" data-name="Rectangle 1212" width="22.322" height="1.289" transform="translate(2.329 21.985)" fill="#efdfeb"/>
      <rect id="Rectangle_1213" data-name="Rectangle 1213" width="11.553" height="1.289" transform="translate(24.65 21.985)" fill="#dbc1d6"/>
      <rect id="Rectangle_1214" data-name="Rectangle 1214" width="20.838" height="0.644" transform="translate(2.857 7.97)" fill="#dbc1d6"/>
      <rect id="Rectangle_1215" data-name="Rectangle 1215" width="26.138" height="2.243" transform="translate(0.421 23.259)" fill="#efdfeb"/>
      <rect id="Rectangle_1216" data-name="Rectangle 1216" width="12.078" height="2.243" transform="translate(26.55 23.259)" fill="#dbc1d6"/>
      <rect id="Rectangle_1217" data-name="Rectangle 1217" width="13.779" height="0.644" transform="translate(22.022 7.97)" fill="#c9a9c4"/>
      <rect id="Rectangle_1218" data-name="Rectangle 1218" width="11.553" height="0.307" transform="translate(24.65 21.985)" fill="#c9a9c4"/>
      <rect id="Rectangle_1219" data-name="Rectangle 1219" width="12.078" height="0.307" transform="translate(26.55 23.259)" fill="#c9a9c4"/>
      <rect id="Rectangle_1220" data-name="Rectangle 1220" width="0.51" height="1.289" transform="translate(24.14 21.985)" fill="#f9eff7"/>
      <rect id="Rectangle_1221" data-name="Rectangle 1221" width="0.447" height="2.243" transform="translate(26.112 23.259)" fill="#f9eff7"/>
      <rect id="Rectangle_1222" data-name="Rectangle 1222" width="0.51" height="1.289" transform="translate(24.14 21.985)" fill="#f9eff7"/>
      <rect id="Rectangle_1223" data-name="Rectangle 1223" width="26.138" height="0.334" transform="translate(0.421 23.259)" fill="#f9eff7"/>
      <rect id="Rectangle_1224" data-name="Rectangle 1224" width="14.643" height="2.427" transform="translate(7.379 8.956)" fill="#efdfeb"/>
      <rect id="Rectangle_1225" data-name="Rectangle 1225" width="22.322" height="0.307" transform="translate(2.329 21.985)" fill="#f9eff7"/>
      <rect id="Rectangle_1226" data-name="Rectangle 1226" width="3.285" height="0.894" transform="translate(3.285 9.259)" fill="#dbc1d6"/>
      <rect id="Rectangle_1227" data-name="Rectangle 1227" width="3.285" height="0.894" transform="translate(20.409 9.259)" fill="#dbc1d6"/>
      <rect id="Rectangle_1228" data-name="Rectangle 1228" width="3.285" height="0.894" transform="translate(31.99 9.259)" fill="#dbc1d6"/>
      <g id="Group_1254" data-name="Group 1254" transform="translate(11.563 14.516)">
        <path id="Rectangle_1229" data-name="Rectangle 1229" d="M2.476,0h0A2.476,2.476,0,0,1,4.952,2.476V7.469a0,0,0,0,1,0,0H0a0,0,0,0,1,0,0V2.476A2.476,2.476,0,0,1,2.476,0Z" fill="#c9a9c4"/>
        <path id="Path_1096" data-name="Path 1096" d="M233.9,226.328a2.032,2.032,0,0,0-1.757,2.012v5.436h3.513V228.34A2.032,2.032,0,0,0,233.9,226.328Z" transform="translate(-230.709 -226.307)" fill="#a57ea3"/>
      </g>
      <g id="Group_1255" data-name="Group 1255" transform="translate(25.061 14.477)">
        <rect id="Rectangle_1230" data-name="Rectangle 1230" width="1.753" height="2.133" fill="#c9a9c4"/>
        <rect id="Rectangle_1231" data-name="Rectangle 1231" width="1.227" height="2.133" fill="#a57ea3"/>
      </g>
      <g id="Group_1256" data-name="Group 1256" transform="translate(27.953 14.477)">
        <rect id="Rectangle_1232" data-name="Rectangle 1232" width="1.753" height="2.133" fill="#c9a9c4"/>
        <rect id="Rectangle_1233" data-name="Rectangle 1233" width="1.227" height="2.133" fill="#a57ea3"/>
      </g>
      <path id="Path_1097" data-name="Path 1097" d="M244.213,203.91h-11.3l13.48,8.007h11.318Z" transform="translate(-219.416 -203.91)" fill="#dbc1d6"/>
      <path id="Path_1098" data-name="Path 1098" d="M212.1,211.916h26.98L225.6,203.91Z" transform="translate(-212.098 -203.91)" fill="#efdfeb"/>
      <path id="Path_1099" data-name="Path 1099" d="M218.17,211.381h19.1l-9.545-5.669Z" transform="translate(-214.232 -204.543)" fill="#dbc1d6"/>
      <path id="Path_1100" data-name="Path 1100" d="M220.62,211.3h16.347l-8.168-4.851Z" transform="translate(-215.094 -204.803)" fill="#efdfeb"/>
      <path id="Path_1101" data-name="Path 1101" d="M232.773,203.91l-.263.156,13.217,7.85h.526Z" transform="translate(-219.274 -203.91)" fill="#f9eff7"/>
      <path id="Path_1102" data-name="Path 1102" d="M247.516,206.845l-4.145-.026,7.127,4.233h4.112Z" transform="translate(-223.091 -204.932)" fill="#929db7"/>
      <rect id="Rectangle_1234" data-name="Rectangle 1234" width="4.112" height="0.584" transform="translate(27.407 5.536)" fill="#707c9b"/>
      <rect id="Rectangle_1235" data-name="Rectangle 1235" width="1.319" height="0.59" transform="translate(20.279 1.302)" fill="#929db7"/>
      <path id="Path_1103" data-name="Path 1103" d="M247.516,205.918h-4.145l7.127,4.233h4.112Z" transform="translate(-223.091 -204.616)" fill="#c3cddd"/>
      <path id="Path_1104" data-name="Path 1104" d="M248.224,206.458h-1.48l5.947,3.532h1.452Z" transform="translate(-224.277 -204.806)" fill="#d8dfea"/>
      <path id="Path_1105" data-name="Path 1105" d="M247.812,206.458h-1.48l5.947,3.532h1.452Z" transform="translate(-224.132 -204.806)" fill="#707c9b"/>
      <path id="Path_1106" data-name="Path 1106" d="M247.812,206.458v.874l-1.48-.874Z" transform="translate(-224.132 -204.806)" fill="#929db7"/>
      <path id="Path_1107" data-name="Path 1107" d="M250.586,210.02l-6.9-4.1h-.312l7.127,4.233h4.112l-.222-.131Z" transform="translate(-223.091 -204.616)" fill="#d8dfea"/>
      <rect id="Rectangle_1236" data-name="Rectangle 1236" width="10.284" height="2.98" transform="translate(8.897 9.774)" fill="#c9a9c4"/>
      <g id="Group_1258" data-name="Group 1258" transform="translate(10.136 10.175)">
        <g id="Group_1257" data-name="Group 1257">
          <path id="Path_1108" data-name="Path 1108" d="M227.729,219.615h.652a1.226,1.226,0,0,1,.647.13.458.458,0,0,1,.2.414.534.534,0,0,1-.088.316.353.353,0,0,1-.235.149v.014a.462.462,0,0,1,.288.171.563.563,0,0,1,.088.333.556.556,0,0,1-.207.459.878.878,0,0,1-.563.165h-.784Zm.445.852h.257a.461.461,0,0,0,.261-.058.214.214,0,0,0,.082-.189.191.191,0,0,0-.089-.178.552.552,0,0,0-.278-.054h-.233Zm0,.362v.561h.289a.421.421,0,0,0,.27-.072.271.271,0,0,0,.088-.221q0-.268-.372-.268Z" transform="translate(-227.729 -219.606)" fill="#fff"/>
          <path id="Path_1109" data-name="Path 1109" d="M231.91,221.762l-.152-.512h-.764l-.152.512h-.479l.739-2.161h.543l.743,2.161Zm-.258-.895q-.211-.7-.237-.787c-.018-.061-.03-.109-.038-.145-.032.126-.121.436-.271.932Z" transform="translate(-228.655 -219.601)" fill="#fff"/>
          <path id="Path_1110" data-name="Path 1110" d="M235.752,221.767h-.565l-.911-1.628h-.014c.019.288.028.493.028.616v1.012h-.4v-2.152h.561l.91,1.611h.01q-.022-.419-.022-.593v-1.018h.4Z" transform="translate(-229.896 -219.606)" fill="#fff"/>
          <path id="Path_1111" data-name="Path 1111" d="M239.258,221.767h-.5l-.549-.907-.187.138v.768h-.444v-2.152h.444v.984l.174-.253.568-.731h.493l-.731.952Z" transform="translate(-231.19 -219.606)" fill="#fff"/>
        </g>
      </g>
    </g>
    <g id="Group_1260" data-name="Group 1260" transform="translate(235.972 192.443)">
      <rect id="Rectangle_1237" data-name="Rectangle 1237" width="2.916" height="4.258" transform="translate(1.128)" fill="#1fc3ea"/>
      <path id="Path_1112" data-name="Path 1112" d="M251.5,204.491l-2.583-3.241h5.17Z" transform="translate(-248.915 -197.563)" fill="#1fc3ea"/>
    </g>
    <g id="Group_1266" data-name="Group 1266" transform="translate(234.125 186.683)">
      <path id="Path_1113" data-name="Path 1113" d="M255.353,190.748a4.047,4.047,0,0,0-3.915-4.061h-.053l-.888,0,.052.078a4.04,4.04,0,0,0-.034,7.93s-.056.068,0,.075c.326.014.888,0,.888,0A4.038,4.038,0,0,0,255.353,190.748Z" transform="translate(-246.488 -186.683)" fill="#c3cddd"/>
      <path id="Path_1114" data-name="Path 1114" d="M254.153,190.744a4.043,4.043,0,1,1-4.026-4.061A4.044,4.044,0,0,1,254.153,190.744Z" transform="translate(-246.066 -186.683)" fill="#c3cddd"/>
      <path id="Path_1115" data-name="Path 1115" d="M250.526,186.685a4.044,4.044,0,1,0,4.015,4.072A4.043,4.043,0,0,0,250.526,186.685Zm-.054,7.722a3.679,3.679,0,1,1,3.7-3.653A3.679,3.679,0,0,1,250.472,194.407Z" transform="translate(-246.202 -186.684)" fill="#929db7"/>
      <g id="Group_1261" data-name="Group 1261" transform="translate(5.253 0.213)">
        <path id="Path_1116" data-name="Path 1116" d="M255.045,187.015l-.814,0a4,4,0,0,1,.759.333l.8,0A3.72,3.72,0,0,0,255.045,187.015Z" transform="translate(-254.189 -187.011)" fill="#929db7"/>
        <path id="Path_1117" data-name="Path 1117" d="M256.179,188.049a3.983,3.983,0,0,1,.39.332l.759,0q-.108-.11-.224-.211l-.151-.121Z" transform="translate(-254.874 -187.376)" fill="#929db7"/>
        <path id="Path_1118" data-name="Path 1118" d="M257.208,189.083a3.931,3.931,0,0,1,.246.331l.768,0c-.043-.069-.088-.137-.136-.2l-.1-.129Z" transform="translate(-255.236 -187.739)" fill="#929db7"/>
        <path id="Path_1119" data-name="Path 1119" d="M257.867,190.115c.056.11.116.215.161.331l.767,0c-.034-.086-.072-.172-.112-.256l-.04-.075Z" transform="translate(-255.468 -188.102)" fill="#929db7"/>
        <path id="Path_1120" data-name="Path 1120" d="M258.275,191.146c.033.11.078.216.1.331l.763,0c-.019-.09-.041-.178-.065-.266-.007-.021-.014-.043-.021-.065Z" transform="translate(-255.611 -188.465)" fill="#929db7"/>
        <path id="Path_1121" data-name="Path 1121" d="M258.488,192.176c.013.11.028.219.032.33l.775,0c0-.069-.007-.137-.013-.2,0-.042-.009-.084-.014-.126Z" transform="translate(-255.686 -188.827)" fill="#929db7"/>
        <path id="Path_1122" data-name="Path 1122" d="M258.482,193.535l.779,0c.005-.042.011-.084.016-.126.007-.068.012-.136.014-.2l-.774,0C258.511,193.318,258.5,193.426,258.482,193.535Z" transform="translate(-255.684 -189.189)" fill="#929db7"/>
        <path id="Path_1123" data-name="Path 1123" d="M258.26,194.564l.778,0,.021-.064c.025-.088.048-.176.067-.266l-.764,0C258.339,194.348,258.294,194.454,258.26,194.564Z" transform="translate(-255.606 -189.55)" fill="#929db7"/>
        <path id="Path_1124" data-name="Path 1124" d="M257.842,195.591l.777,0,.04-.074c.041-.084.079-.169.115-.255l-.766,0C257.961,195.377,257.9,195.482,257.842,195.591Z" transform="translate(-255.459 -189.912)" fill="#929db7"/>
        <path id="Path_1125" data-name="Path 1125" d="M257.173,196.618l.776,0,.1-.128c.048-.065.094-.132.138-.2l-.768,0A4.114,4.114,0,0,1,257.173,196.618Z" transform="translate(-255.224 -190.273)" fill="#929db7"/>
        <path id="Path_1126" data-name="Path 1126" d="M256.134,197.643l.776,0,.152-.12q.117-.1.226-.209l-.758,0A4.086,4.086,0,0,1,256.134,197.643Z" transform="translate(-254.858 -190.633)" fill="#929db7"/>
        <path id="Path_1127" data-name="Path 1127" d="M254.167,198.665l.79,0a3.894,3.894,0,0,0,.762-.327l-.786,0A4.026,4.026,0,0,1,254.167,198.665Z" transform="translate(-254.167 -190.993)" fill="#929db7"/>
      </g>
      <path id="Path_1128" data-name="Path 1128" d="M250.127,186.683a4.043,4.043,0,1,0,4.026,4.061A4.043,4.043,0,0,0,250.127,186.683Zm-.034,7.722a3.679,3.679,0,1,1,3.7-3.663A3.679,3.679,0,0,1,250.093,194.405Z" transform="translate(-246.066 -186.683)" fill="#dfe7ef"/>
      <g id="Group_1262" data-name="Group 1262" transform="translate(2.502 1.115)">
        <path id="Path_1129" data-name="Path 1129" d="M252.1,192.423a.569.569,0,0,0-.141-.406,1.419,1.419,0,0,0-.513-.3,2.884,2.884,0,0,1-1.03-.55,1.135,1.135,0,0,1-.331-.875,1.147,1.147,0,0,1,.339-.85,1.466,1.466,0,0,1,.912-.385l0-.659.49,0,0,.668a1.359,1.359,0,0,1,.866.436,1.3,1.3,0,0,1,.3.926l-.006.016-.878,0a.772.772,0,0,0-.149-.516.623.623,0,0,0-.844-.034.6.6,0,0,0-.132.405.522.522,0,0,0,.135.38,1.7,1.7,0,0,0,.524.307,2.691,2.691,0,0,1,1.019.547,1.162,1.162,0,0,1,.335.884,1.132,1.132,0,0,1-.338.856,1.491,1.491,0,0,1-.914.377l0,.606-.49,0,0-.607a1.633,1.633,0,0,1-.97-.4,1.236,1.236,0,0,1-.362-1l.009-.018.875,0a.715.715,0,0,0,.189.563.738.738,0,0,0,.5.17.621.621,0,0,0,.453-.147A.538.538,0,0,0,252.1,192.423Z" transform="translate(-249.924 -188.403)" fill="#929db7"/>
      </g>
      <g id="Group_1263" data-name="Group 1263" transform="translate(2.296 1.115)">
        <path id="Path_1130" data-name="Path 1130" d="M251.785,192.422a.571.571,0,0,0-.142-.407,1.428,1.428,0,0,0-.513-.3,2.875,2.875,0,0,1-1.029-.549,1.131,1.131,0,0,1-.331-.876,1.146,1.146,0,0,1,.339-.85,1.465,1.465,0,0,1,.912-.385l0-.659.49,0,0,.668a1.362,1.362,0,0,1,.866.436,1.306,1.306,0,0,1,.3.926l-.006.016-.877,0a.777.777,0,0,0-.15-.516.624.624,0,0,0-.844-.033.6.6,0,0,0-.132.405.523.523,0,0,0,.135.38,1.7,1.7,0,0,0,.525.307,2.693,2.693,0,0,1,1.019.547,1.158,1.158,0,0,1,.335.883,1.131,1.131,0,0,1-.337.856,1.494,1.494,0,0,1-.914.377l0,.607-.49,0,0-.606a1.631,1.631,0,0,1-.969-.4,1.235,1.235,0,0,1-.363-1l.009-.018.875,0a.714.714,0,0,0,.189.562.733.733,0,0,0,.5.17.618.618,0,0,0,.453-.146A.541.541,0,0,0,251.785,192.422Z" transform="translate(-249.606 -188.402)" fill="#dfe7ef"/>
      </g>
      <path id="Path_1131" data-name="Path 1131" d="M246.066,190.709a4.033,4.033,0,0,0,1.177,2.868l.259-.256a3.679,3.679,0,1,1,5.225-5.18l.259-.256h0a4.094,4.094,0,0,0-.53-.443c-.023-.016-.042-.039-.065-.055a4.123,4.123,0,0,0-.58-.319c-.037-.017-.069-.042-.106-.058a3.99,3.99,0,0,0-.519-.164c-.082-.023-.157-.058-.241-.076a4.067,4.067,0,0,0-.664-.07c-.051,0-.1-.016-.151-.016A4.044,4.044,0,0,0,246.066,190.709Z" transform="translate(-246.066 -186.683)" fill="#ebf2f7"/>
      <g id="Group_1264" data-name="Group 1264" transform="translate(2.296 1.115)">
        <path id="Path_1132" data-name="Path 1132" d="M251.6,189.072l0-.668-.49,0,0,.659a1.465,1.465,0,0,0-.912.385,1.146,1.146,0,0,0-.339.85,1.131,1.131,0,0,0,.331.876,2.567,2.567,0,0,0,.765.454l.591-.592-.13-.045a1.7,1.7,0,0,1-.525-.307.523.523,0,0,1-.135-.38.6.6,0,0,1,.132-.405.624.624,0,0,1,.844.033.777.777,0,0,1,.15.516h.255l.551-.546a1.169,1.169,0,0,0-.222-.394A1.362,1.362,0,0,0,251.6,189.072Z" transform="translate(-249.695 -188.402)" fill="#ebf2f7"/>
        <path id="Path_1133" data-name="Path 1133" d="M249.616,194.312l-.009.018a1.574,1.574,0,0,0,.077.538l.558-.554Z" transform="translate(-249.606 -190.48)" fill="#ebf2f7"/>
      </g>
      <g id="Group_1265" data-name="Group 1265" transform="translate(2.053 2.084)">
        <path id="Path_1134" data-name="Path 1134" d="M250.152,198.213a3.615,3.615,0,0,1-.648-.264l-.271.268a4.053,4.053,0,0,0,.626.286Z" transform="translate(-249.232 -192.728)" fill="#ebf2f7"/>
        <path id="Path_1135" data-name="Path 1135" d="M257.624,189.9l-.27.268a3.641,3.641,0,0,1,.259.651l.292-.291A4,4,0,0,0,257.624,189.9Z" transform="translate(-252.087 -189.897)" fill="#ebf2f7"/>
      </g>
      <path id="Path_1136" data-name="Path 1136" d="M251.416,195.741l1.738-1.726a1.14,1.14,0,0,0-.248-.655l-.658.654a.85.85,0,0,1,.014.15.539.539,0,0,1-.152.4.619.619,0,0,1-.453.147.887.887,0,0,1-.1-.008l-.586.582a1.887,1.887,0,0,0,.451.106Z" transform="translate(-247.789 -189.031)" fill="#ebf2f7"/>
    </g>
  </g>
</svg>
