<svg xmlns="http://www.w3.org/2000/svg" width="34.578" height="34.578" viewBox="0 0 34.578 34.578">
  <g id="Group_1308" data-name="Group 1308" transform="translate(-427.471 4.844)">
    <path id="Path_1304" data-name="Path 1304" d="M444.76,29.734a17.289,17.289,0,1,1,17.289-17.289A17.289,17.289,0,0,1,444.76,29.734Z" transform="translate(0 0)" fill="#f4f4f4"/>
    <g id="Group_1307" data-name="Group 1307" transform="translate(436.4 -1.453)">
      <path id="Path_1305" data-name="Path 1305" d="M487.641,38.272,496,43.3l-8.36,5.024Z" transform="translate(-479.281 -29.274)" fill="#0b0b0d"/>
      <path id="Path_1306" data-name="Path 1306" d="M466.905,38.272l-8.36,5.024,8.36,5.024Z" transform="translate(-458.545 -29.274)" fill="#262728"/>
      <path id="Path_1307" data-name="Path 1307" d="M466.905,15.954l-8.36,5.024,8.36-14.022Z" transform="translate(-458.545 -6.956)" fill="#707177"/>
      <path id="Path_1308" data-name="Path 1308" d="M487.641,15.954,496,20.979l-8.36-14.022Z" transform="translate(-479.281 -6.956)" fill="#222221"/>
      <path id="Path_1309" data-name="Path 1309" d="M487.641,66.77V73.8L496,61.746Z" transform="translate(-479.281 -46.003)" fill="#222221"/>
      <path id="Path_1310" data-name="Path 1310" d="M466.905,66.77l-8.36-5.024,8.36,12.053Z" transform="translate(-458.545 -46.003)" fill="#70787b"/>
    </g>
  </g>
</svg>
