<svg id="Group_1305" data-name="Group 1305" xmlns="http://www.w3.org/2000/svg" xmlns:xlink="http://www.w3.org/1999/xlink" width="26.923" height="34.413" viewBox="0 0 26.923 34.413">
  <defs>
    <linearGradient id="linear-gradient" x1="0.394" y1="1.139" x2="0.573" y2="-0.125" gradientUnits="objectBoundingBox">
      <stop offset="0.024" stop-color="#ff0053"/>
      <stop offset="0.459" stop-color="#fd4e3e"/>
      <stop offset="0.826" stop-color="#fb8a2e"/>
      <stop offset="1" stop-color="#fba228"/>
    </linearGradient>
    <linearGradient id="linear-gradient-2" x1="0.89" y1="-0.412" x2="0.182" y2="1.193" gradientUnits="objectBoundingBox">
      <stop offset="0" stop-color="#623454"/>
      <stop offset="0.452" stop-color="#ad95a6"/>
      <stop offset="0.827" stop-color="#e8e1e6"/>
      <stop offset="1" stop-color="#fff"/>
    </linearGradient>
    <linearGradient id="linear-gradient-3" x1="1.316" y1="-0.876" x2="-0.121" y2="1.2" xlink:href="#linear-gradient-2"/>
  </defs>
  <g id="Logo">
    <path id="Path_42" data-name="Path 42" d="M142.412,350.078h0a8.967,8.967,0,0,1-8.967,8.967h-4.494a11.985,11.985,0,0,1-11.984,11.984h-1.477V350.078a13.462,13.462,0,0,1,13.462-13.462h0A13.462,13.462,0,0,1,142.412,350.078Z" transform="translate(-115.489 -336.616)" fill="url(#linear-gradient)"/>
    <path id="Path_43" data-name="Path 43" d="M128.951,419.141h0s-13.462-1.313-13.462,11.984h1.477A11.985,11.985,0,0,0,128.951,419.141Z" transform="translate(-115.489 -396.712)" fill="url(#linear-gradient-2)" style="mix-blend-mode: multiply;isolation: isolate"/>
    <path id="Path_44" data-name="Path 44" d="M115.489,431.126h1.477c.286,0,.569-.014.85-.033.613-10.9,11.135-11.951,11.135-11.951h0S115.489,417.828,115.489,431.126Z" transform="translate(-115.489 -396.712)" fill="url(#linear-gradient-3)" style="mix-blend-mode: multiply;isolation: isolate"/>
    <path id="Path_45" data-name="Path 45" d="M115.489,431.126h.777c.361-12.369,12.685-11.984,12.685-11.984h0S115.489,417.828,115.489,431.126Z" transform="translate(-115.489 -396.712)" fill="url(#linear-gradient-3)" style="mix-blend-mode: multiply;isolation: isolate"/>
  </g>
  <g id="Group_9" data-name="Group 9" transform="translate(7.578 2.299)">
    <path id="Path_46" data-name="Path 46" d="M149.077,345.509c-3.947,1.5-3.229,5.145-3.2,8.491.026,2.876-1.26,4.637-1.849,6.173a.425.425,0,0,0,.5.545c2.582-.492,2.759,1.82,4.223,2.074,1.591.275,1.472-2.062,3.48-1.439,4.616,1.394,7.269-1.223,5.838-7.833S151.633,344.534,149.077,345.509Zm1.52,5.847a1,1,0,0,1-1.332-.332.9.9,0,0,1,.351-1.261,1,1,0,0,1,1.332.332A.9.9,0,0,1,150.6,351.355Zm2.783-1.535a1,1,0,0,1-1.332-.332.9.9,0,0,1,.351-1.26,1,1,0,0,1,1.332.332A.9.9,0,0,1,153.381,349.82Z" transform="translate(-143.84 -345.24)" fill="#fff"/>
    <path id="Path_47" data-name="Path 47" d="M148.63,345.3c-4.087,1.558-3.335,5.347-3.3,8.828.033,2.992-1.3,4.822-1.9,6.418a.443.443,0,0,0,.523.568c2.675-.507,2.863,1.9,4.381,2.166,1.65.289,1.521-2.142,3.6-1.491,4.786,1.459,7.531-1.259,6.033-8.139S151.277,344.29,148.63,345.3Zm1.588,6.086a1.041,1.041,0,0,1-1.381-.348.931.931,0,0,1,.361-1.311,1.041,1.041,0,0,1,1.381.348A.931.931,0,0,1,150.218,351.385Zm2.881-1.592a1.041,1.041,0,0,1-1.381-.348.931.931,0,0,1,.361-1.311,1.041,1.041,0,0,1,1.381.348A.931.931,0,0,1,153.1,349.793Z" transform="translate(-143.403 -345.083)" opacity="0.19"/>
    <path id="Path_48" data-name="Path 48" d="M149.077,345.509c-3.947,1.5-3.229,5.145-3.2,8.491.026,2.876-1.26,4.637-1.849,6.173a.425.425,0,0,0,.5.545c2.582-.492,2.759,1.82,4.223,2.074,1.591.275,1.472-2.062,3.48-1.439,4.616,1.394,7.269-1.223,5.838-7.833S151.633,344.534,149.077,345.509Zm1.52,5.847a1,1,0,0,1-1.332-.332.9.9,0,0,1,.351-1.261,1,1,0,0,1,1.332.332A.9.9,0,0,1,150.6,351.355Zm2.783-1.535a1,1,0,0,1-1.332-.332.9.9,0,0,1,.351-1.26,1,1,0,0,1,1.332.332A.9.9,0,0,1,153.381,349.82Z" transform="translate(-143.84 -345.24)" fill="#fff"/>
  </g>
</svg>
