<svg xmlns="http://www.w3.org/2000/svg" width="31.66" height="31.66" viewBox="0 0 31.66 31.66">
  <g id="Group_1306" data-name="Group 1306" transform="translate(-41.167 -41.168)">
    <path id="Path_1302" data-name="Path 1302" d="M57,72.828A15.83,15.83,0,1,1,72.827,57,15.83,15.83,0,0,1,57,72.828Z" fill="#f27d14"/>
    <path id="Path_1303" data-name="Path 1303" d="M81.918,73.016a3.069,3.069,0,0,0,2.276-2.347c.521-1.942-1.008-4.025-3.146-4.6l-.209-.056.766-2.861-1.777-.477-.767,2.861-1.392-.373.7-2.878-1.765-.473-.766,2.861-3.606-.966-.592,2.209,1.664.446a.761.761,0,0,1,.5.949L71.68,75.255a.76.76,0,0,1-.909.571l-1.23-.33-1.01,2.034,3.606.967-.766,2.861,1.828.49.767-2.861,1.392.373-.766,2.861,1.777.476.766-2.861c2.639.707,5.79.331,6.641-2.843a3.392,3.392,0,0,0-1.858-3.978m-4.844-5.642,2.023.542a1.577,1.577,0,0,1,1.294,1.948A1.55,1.55,0,0,1,78.3,70.9l-2.023-.542Zm-.1,10.113-2.431-.651,1.076-4.1,2.451.657a2.14,2.14,0,0,1,1.773,2.667,2.106,2.106,0,0,1-2.869,1.423" transform="translate(-20.165 -15.215)" fill="#fff"/>
  </g>
</svg>
