<svg xmlns="http://www.w3.org/2000/svg" width="29.4" height="29.4" viewBox="0 0 29.4 29.4">
  <g id="Group_1232" data-name="Group 1232" transform="translate(-2.2 -199.9)">
    <circle id="Ellipse_367" data-name="Ellipse 367" cx="14.7" cy="14.7" r="14.7" transform="translate(2.2 199.9)" fill="#fff"/>
    <path id="Path_1093" data-name="Path 1093" d="M31.6,214.6a14.7,14.7,0,1,1-28.01-6.247,12.024,12.024,0,0,0-.871,4.393c0,6.655,5.376,7.619,7.656,7.6,3.485-.037,7.545-1.743,10.974-4.894,0,0-.445,2.484-.575,3.244a1.127,1.127,0,0,0,1.094,1.39h.3a1.546,1.546,0,0,0,1.446-1.39l1.242-6.933a1.111,1.111,0,0,0-1.131-1.39H16.789a1.51,1.51,0,0,0-1.613,1.186c0,.037-.056.26-.056.315a1.1,1.1,0,0,0,1.149,1.3h3.615l-.167.167a12.6,12.6,0,0,1-8.156,3.652,5.115,5.115,0,0,1-5.394-5.227c0-7.508,7.044-11.864,10.733-11.864A14.711,14.711,0,0,1,31.6,214.6Z" transform="translate(0)" fill="#df2127"/>
  </g>
</svg>
