<svg xmlns="http://www.w3.org/2000/svg" width="40" height="26" viewBox="0 0 40 26">
  <g id="Group_1233" data-name="Group 1233" transform="translate(-147.412 -723.064)">
    <rect id="Rectangle-1" width="40" height="26" rx="5" transform="translate(147.412 723.064)" fill="#0e4595"/>
    <path id="Shape" d="M278.2,149.179l1.826-10.714h2.92l-1.827,10.714Z" transform="translate(-115.931 592.132)" fill="#fff" fill-rule="evenodd"/>
    <path id="path13" d="M372.96,134.915a7.541,7.541,0,0,0-2.617-.45c-2.885,0-4.918,1.453-4.935,3.536-.016,1.539,1.451,2.4,2.559,2.911,1.137.525,1.519.86,1.513,1.329-.007.718-.908,1.046-1.747,1.046a6.122,6.122,0,0,1-2.749-.562l-.376-.17-.41,2.4a9.245,9.245,0,0,0,3.253.572c3.07,0,5.062-1.436,5.085-3.66.011-1.219-.767-2.146-2.452-2.911-1.021-.5-1.646-.826-1.639-1.328,0-.445.529-.922,1.672-.922a5.388,5.388,0,0,1,2.186.41l.262.124.4-2.322" transform="translate(-197.224 595.913)" fill="#fff" fill-rule="evenodd"/>
    <path id="Path" d="M521.321,138.465h-2.257a1.453,1.453,0,0,0-1.529.888l-4.337,9.818h3.066s.5-1.32.615-1.61l3.74,0c.087.375.355,1.605.355,1.605h2.71l-2.363-10.707Zm-3.58,6.918c.241-.617,1.163-2.995,1.163-2.995-.017.029.24-.62.387-1.023l.2.924s.559,2.557.676,3.094H517.74Z" transform="translate(-338.07 592.132)" fill="#fff" fill-rule="evenodd"/>
    <path id="path16" d="M108.406,138.465l-2.859,7.306-.3-1.485a8.361,8.361,0,0,0-4.044-4.494l2.614,9.369,3.09,0,4.6-10.693h-3.093" transform="translate(51.382 592.132)" fill="#fff" fill-rule="evenodd"/>
    <path id="path18" d="M49.943,138.465H45.234l-.037.223c3.663.887,6.087,3.03,7.094,5.6l-1.024-4.923a1.223,1.223,0,0,0-1.324-.9" transform="translate(104.318 592.132)" fill="#f2ae14" fill-rule="evenodd"/>
  </g>
</svg>
