<svg xmlns="http://www.w3.org/2000/svg" width="46.941" height="21.075" viewBox="0 0 46.941 21.075">
  <g id="Group_1229" data-name="Group 1229" transform="translate(23.41 -398.856)">
    <path id="Path_1075" data-name="Path 1075" d="M23.531,418.323c0,.888-.307,1.609-.686,1.609H-22.724c-.379,0-.686-.72-.686-1.609V400.465c0-.889.307-1.609.686-1.609H22.845c.379,0,.686.72.686,1.609Z" fill-rule="evenodd"/>
    <g id="Group_1228" data-name="Group 1228" transform="translate(-18.779 402.111)">
      <path id="Path_1076" data-name="Path 1076" d="M73.745,444.229H67.338l-3.112-14.591h5.146l1.332,8.99,1.353-8.99h5.9l1.352,9.227,1.363-9.227h5.052l-3.061,14.591H76.349l-1.312-9.444Z" transform="translate(-59.591 -429.638)" fill="gold"/>
      <path id="Path_1077" data-name="Path 1077" d="M24.295,444.142H23.43l-3.043-14.5h.865Z" transform="translate(-20.387 -429.638)" fill="gold"/>
      <path id="Path_1078" data-name="Path 1078" d="M46.494,444.142h-.865l-3.043-14.5h.865Z" transform="translate(-40.239 -429.638)" fill="gold"/>
      <path id="Path_1079" data-name="Path 1079" d="M251.573,429.638v9.114a2.461,2.461,0,0,1-.347,1.4,1.207,1.207,0,0,1-1.953.02,2.5,2.5,0,0,1-.337-1.424v-9.114h-1.092L245,443.125a5.265,5.265,0,0,0,1.873,1.034,11.238,11.238,0,0,0,3.378.428q3.544,0,5.225-1.479a5.8,5.8,0,0,0,1.682-4.586v-8.885Z" transform="translate(-221.253 -429.638)" fill="gold"/>
      <path id="Path_1080" data-name="Path 1080" d="M229.531,429.638v8.885a8.787,8.787,0,0,0,.3,2.644,4.4,4.4,0,0,0,.957,1.594l2.761-13.123Z" transform="translate(-207.417 -429.638)" fill="#fff"/>
      <g id="Group_1227" data-name="Group 1227" transform="translate(37.04 0.47)">
        <path id="Path_1081" data-name="Path 1081" d="M370.691,434.757l.274-.018a.229.229,0,0,0,.036.108.148.148,0,0,0,.127.06.135.135,0,0,0,.095-.031.094.094,0,0,0,.034-.071.092.092,0,0,0-.032-.068.356.356,0,0,0-.147-.057.607.607,0,0,1-.27-.12.247.247,0,0,1-.081-.19.269.269,0,0,1,.042-.143.28.28,0,0,1,.125-.106.555.555,0,0,1,.229-.039.448.448,0,0,1,.272.07.309.309,0,0,1,.112.224l-.272.017a.157.157,0,0,0-.045-.1.14.14,0,0,0-.1-.03.111.111,0,0,0-.076.023.07.07,0,0,0-.026.055.056.056,0,0,0,.021.042.228.228,0,0,0,.1.036,1.159,1.159,0,0,1,.271.087.274.274,0,0,1,.156.255.327.327,0,0,1-.05.175.315.315,0,0,1-.139.121.531.531,0,0,1-.224.041.445.445,0,0,1-.329-.1A.393.393,0,0,1,370.691,434.757Z" transform="translate(-370.691 -434.08)" fill="gold"/>
        <path id="Path_1082" data-name="Path 1082" d="M380.029,434.238h.379l.146.6.145-.6h.379v.986h-.236v-.752l-.182.752h-.213l-.181-.752v.752h-.236Z" transform="translate(-379.042 -434.221)" fill="gold"/>
      </g>
    </g>
  </g>
</svg>
